<?xml version="1.0" encoding="UTF-8"?>
<svg version="1.1" xmlns="http://www.w3.org/2000/svg" width="512" height="512">
<path d="M0 0 C13.62318142 12.35590873 17.42841733 41.96111776 20.6875 59.4375 C20.84976074 60.24783691 21.01202148 61.05817383 21.17919922 61.89306641 C26.60112817 89.84201906 26.16738034 122.54289562 20.6875 150.4375 C20.52652832 151.33307617 20.36555664 152.22865234 20.19970703 153.15136719 C9.37865541 212.96340465 -24.67929494 270.47893264 -73.3125 307.4375 C-73.85277832 307.85418945 -74.39305664 308.27087891 -74.94970703 308.70019531 C-84.9447116 316.3834873 -95.40459036 323.12592968 -106.3125 329.4375 C-106.98974121 329.83179199 -107.66698242 330.22608398 -108.36474609 330.63232422 C-145.8628005 352.20037366 -188.95477892 361.93241124 -231.9375 361.75 C-232.85692383 361.74784485 -233.77634766 361.7456897 -234.72363281 361.74346924 C-249.09666193 361.68956415 -263.16402869 361.17901263 -277.3125 358.4375 C-278.34117187 358.23882324 -279.36984375 358.04014648 -280.4296875 357.83544922 C-319.44974255 350.02792921 -353.83966137 334.16691451 -386.3125 311.4375 C-386.32708252 312.58750488 -386.34166504 313.73750977 -386.35668945 314.92236328 C-386.41483762 319.20538805 -386.49206924 323.48789616 -386.57495117 327.77050781 C-386.60812296 329.62100819 -386.63617887 331.47160786 -386.65893555 333.32226562 C-386.6926245 335.98871003 -386.7449466 338.6542509 -386.80078125 341.3203125 C-386.81036613 342.55347702 -386.81036613 342.55347702 -386.82014465 343.81155396 C-386.9450515 348.73582601 -387.61055821 352.16479373 -390.3125 356.4375 C-395.48933002 361.10927343 -398.70603498 361.7853341 -405.546875 361.72265625 C-410.3598343 361.2264048 -413.02784029 358.89935415 -416.125 355.375 C-418.57286453 351.38111576 -418.47226815 347.58865837 -418.48950195 343.0637207 C-418.49607315 342.31535446 -418.50264435 341.56698822 -418.50941467 340.79594421 C-418.52912938 338.31838883 -418.54080773 335.84089409 -418.55078125 333.36328125 C-418.55485678 332.51547781 -418.5589323 331.66767437 -418.56313133 330.79417992 C-418.58398681 326.30460225 -418.59828935 321.81505507 -418.60766602 317.32543945 C-418.61871415 312.69971708 -418.65309688 308.0744779 -418.69283772 303.44892597 C-418.71905101 299.88257485 -418.72736214 296.31633789 -418.73094749 292.74989891 C-418.73580327 291.04554172 -418.7473884 289.34118929 -418.76598549 287.63692665 C-418.94163895 270.46920945 -418.94163895 270.46920945 -414.3125 264.4375 C-409.25392001 260.96122303 -405.45376552 259.84976157 -399.28515625 259.91992188 C-398.13006058 259.90940796 -398.13006058 259.90940796 -396.95162964 259.89868164 C-394.42571116 259.88118752 -391.90092833 259.89269305 -389.375 259.90625 C-387.60815213 259.9035526 -385.84130571 259.89966812 -384.07446289 259.89465332 C-380.37925015 259.88876992 -376.68442531 259.89728366 -372.98925781 259.91601562 C-368.26480733 259.93880465 -363.54126592 259.92567532 -358.81684875 259.90172577 C-355.17070733 259.88723633 -351.52477963 259.89188815 -347.87863159 259.90223694 C-346.13719575 259.90489554 -344.39574018 259.90166509 -342.65432739 259.89231873 C-340.2156472 259.88210083 -337.77841662 259.89772549 -335.33984375 259.91992188 C-334.62794891 259.91182495 -333.91605408 259.90372803 -333.18258667 259.89538574 C-327.74799118 259.98651699 -324.7091458 261.4747918 -320.3125 264.4375 C-317.4471505 267.92044363 -316.40987998 271.6306373 -315.875 276.0625 C-316.55555832 281.31252134 -318.30553268 284.76488837 -322.25 288.25 C-326.79704359 291.49788828 -330.29556552 291.57787027 -335.828125 291.75390625 C-337.07851563 291.79580078 -338.32890625 291.83769531 -339.6171875 291.88085938 C-340.91914063 291.92017578 -342.22109375 291.95949219 -343.5625 292 C-344.87992187 292.04318359 -346.19734375 292.08636719 -347.5546875 292.13085938 C-350.80718788 292.23691917 -354.05976392 292.33898024 -357.3125 292.4375 C-307.78342471 322.93356819 -249.33949344 338.48226757 -191.3125 326.4375 C-190.33249023 326.23882324 -189.35248047 326.04014648 -188.34277344 325.83544922 C-136.9239137 315.1332076 -88.57414806 287.43851352 -56.3125 245.4375 C-55.8808252 244.87691895 -55.44915039 244.31633789 -55.00439453 243.73876953 C-48.07718763 234.68692409 -41.91476987 225.36052362 -36.3125 215.4375 C-35.75199951 214.46006836 -35.75199951 214.46006836 -35.18017578 213.46289062 C-7.43343091 164.76114143 0.14048129 103.55548703 -14.3125 49.4375 C-16.55506265 42.12719293 -19.08532073 34.89792671 -21.74194336 27.72875977 C-26.75181418 13.93643263 -26.75181418 13.93643263 -24.3125 6.4375 C-21.95381361 2.51858788 -19.54481683 0.09473564 -15.5 -2.0625 C-9.82873567 -2.95211009 -5.20686441 -2.45606812 0 0 Z " fill="#e23844" transform="translate(488.3125,150.5625)"/>
<path d="M0 0 C1.51427582 0.00081573 1.51427582 0.00081573 3.05914307 0.00164795 C19.56873539 0.04241399 35.48532001 0.94970691 51.6875 4.375 C52.72938477 4.59462402 53.77126953 4.81424805 54.84472656 5.04052734 C90.01077522 12.71104706 122.46554152 27.4282864 151.6875 48.375 C152.6775 49.035 153.6675 49.695 154.6875 50.375 C154.70208252 49.22499512 154.71666504 48.07499023 154.73168945 46.89013672 C154.78983762 42.60711195 154.86706924 38.32460384 154.94995117 34.04199219 C154.98312296 32.19149181 155.01117887 30.34089214 155.03393555 28.49023438 C155.0676245 25.82378997 155.1199466 23.1582491 155.17578125 20.4921875 C155.18217117 19.67007782 155.1885611 18.84796814 155.19514465 18.00094604 C155.3200515 13.07667399 155.98555821 9.64770627 158.6875 5.375 C163.86433002 0.70322657 167.08103498 0.0271659 173.921875 0.08984375 C178.7348343 0.5860952 181.40284029 2.91314585 184.5 6.4375 C186.94786453 10.43138424 186.84726815 14.22384163 186.86450195 18.7487793 C186.87107315 19.49714554 186.87764435 20.24551178 186.88441467 21.01655579 C186.90412938 23.49411117 186.91580773 25.97160591 186.92578125 28.44921875 C186.92985678 29.29702219 186.9339323 30.14482563 186.93813133 31.01832008 C186.95898681 35.50789775 186.97328935 39.99744493 186.98266602 44.48706055 C186.99371415 49.11278292 187.02809688 53.7380221 187.06783772 58.36357403 C187.09405101 61.92992515 187.10236214 65.49616211 187.10594749 69.06260109 C187.11080327 70.76695828 187.1223884 72.47131071 187.14098549 74.17557335 C187.31663895 91.34329055 187.31663895 91.34329055 182.6875 97.375 C177.62892001 100.85127697 173.82876552 101.96273843 167.66015625 101.89257812 C166.50506058 101.90309204 166.50506058 101.90309204 165.32662964 101.91381836 C162.80071116 101.93131248 160.27592833 101.91980695 157.75 101.90625 C155.98315213 101.9089474 154.21630571 101.91283188 152.44946289 101.91784668 C148.75425015 101.92373008 145.05942531 101.91521634 141.36425781 101.89648438 C136.63980733 101.87369535 131.91626592 101.88682468 127.19184875 101.91077423 C123.54570733 101.92526367 119.89977963 101.92061185 116.25363159 101.91026306 C114.51219575 101.90760446 112.77074018 101.91083491 111.02932739 101.92018127 C108.5906472 101.93039917 106.15341662 101.91477451 103.71484375 101.89257812 C103.00294891 101.90067505 102.29105408 101.90877197 101.55758667 101.91711426 C96.12299118 101.82598301 93.0841458 100.3377082 88.6875 97.375 C85.8221505 93.89205637 84.78487998 90.1818627 84.25 85.75 C84.93055832 80.49997866 86.68053268 77.04761163 90.625 73.5625 C95.17204359 70.31461172 98.67056552 70.23462973 104.203125 70.05859375 C105.45351563 70.01669922 106.70390625 69.97480469 107.9921875 69.93164062 C109.29414063 69.89232422 110.59609375 69.85300781 111.9375 69.8125 C113.91363281 69.74772461 113.91363281 69.74772461 115.9296875 69.68164062 C119.18218788 69.57558083 122.43476392 69.47351976 125.6875 69.375 C73.16306472 35.70326894 12.11622625 23.804471 -49.07910156 36.97021484 C-54.54819993 38.24812846 -59.93618508 39.75423651 -65.3125 41.375 C-66.56546875 41.74238281 -67.8184375 42.10976563 -69.109375 42.48828125 C-126.17030471 60.30451574 -171.93121927 102.27251107 -199.8125 154.375 C-224.70777237 202.00761263 -232.25298579 262.6006853 -216.68908691 314.4519043 C-214.5882732 321.13028052 -212.33137165 327.75663897 -209.97094727 334.34741211 C-209.61043777 335.36904449 -209.61043777 335.36904449 -209.24264526 336.41131592 C-208.58587316 338.26558635 -207.91488502 340.11480414 -207.24291992 341.96362305 C-205.92056218 346.8120368 -205.72986373 350.75656591 -207.4375 355.5 C-210.12733493 359.62441356 -212.70003929 362.59935137 -217.45703125 364.01171875 C-222.83506958 364.86377593 -226.51408831 364.14331444 -231.3125 361.375 C-236.83880885 357.02336549 -238.50763381 351.58398626 -240.75 345.0625 C-241.13760498 343.95237549 -241.52520996 342.84225098 -241.92456055 341.69848633 C-245.77769803 330.40921709 -248.90781907 319.05726258 -251.3125 307.375 C-251.52277832 306.37388184 -251.73305664 305.37276367 -251.94970703 304.34130859 C-258.30681161 272.59605238 -257.96120405 237.02894503 -251.3125 205.375 C-251.10351074 204.35970215 -250.89452148 203.3444043 -250.67919922 202.29833984 C-241.87022896 160.84009253 -222.81128029 122.55547228 -195.3125 90.375 C-194.35730469 89.25158203 -194.35730469 89.25158203 -193.3828125 88.10546875 C-181.56826578 74.61298057 -168.8329628 61.92656427 -154.3125 51.375 C-153.7354834 50.94783691 -153.1584668 50.52067383 -152.56396484 50.08056641 C-121.60627272 27.16316818 -86.77496207 11.88305526 -49.0625 4.125 C-48.33192383 3.97377686 -47.60134766 3.82255371 -46.84863281 3.66674805 C-31.27427726 0.65953221 -15.82486931 -0.03219279 0 0 Z " fill="#e23844" transform="translate(255.3125,-0.375)"/>
<path d="M0 0 C6.03680362 3.39718165 9.14164964 8.08135553 11.2015686 14.54171753 C12.48678841 20.50210977 12.1740788 26.62420603 12.10546875 32.69140625 C12.09986283 34.15827497 12.09559745 35.62514937 12.09260559 37.09202576 C12.08123501 40.92420376 12.05183665 44.75603233 12.01849365 48.58807373 C11.98762323 52.50983963 11.97406425 56.43166284 11.95898438 60.35351562 C11.926958 68.02750183 11.87585808 75.70120167 11.8125 83.375 C12.92254395 83.35010498 14.03258789 83.32520996 15.17626953 83.29956055 C19.0115573 83.37912976 19.99100615 83.6339079 22.6875 86.1875 C23.26242187 86.70957031 23.83734375 87.23164063 24.4296875 87.76953125 C26.5589757 90.24167094 26.81680178 92.41973846 27.125 95.625 C26.75408491 100.07598102 25.88521871 103.08097745 22.8125 106.375 C19.2177931 108.42188542 15.94222103 109.375 11.8125 109.375 C11.81419189 110.54687866 11.81419189 110.54687866 11.81591797 111.74243164 C11.80375584 115.3083158 11.74603935 118.87208789 11.6875 122.4375 C11.69136719 124.28118164 11.69136719 124.28118164 11.6953125 126.16210938 C11.4741998 136.416211 11.4741998 136.416211 8.0390625 140.67578125 C4.80412913 143.74362295 2.38262568 144.43389515 -2.01171875 144.57421875 C-5.38835965 144.26504696 -7.44181043 143.35445062 -10.1875 141.375 C-14.32297231 136.12183247 -15.32979606 132.30520513 -15.3125 125.75 C-15.31507813 124.78835938 -15.31765625 123.82671875 -15.3203125 122.8359375 C-15.20823236 119.91526101 -14.97782148 117.06395687 -14.67919922 114.15869141 C-14.58758514 113.26179596 -14.49597107 112.36490051 -14.40158081 111.44082642 C-14.33093414 110.7591037 -14.26028748 110.07738098 -14.1875 109.375 C-15.06620506 109.38166183 -15.06620506 109.38166183 -15.96266174 109.38845825 C-22.07867994 109.43282365 -28.19465214 109.46292119 -34.31079102 109.48486328 C-36.59108335 109.49489935 -38.87136289 109.50853115 -41.15161133 109.52587891 C-44.43574184 109.55023233 -47.71970167 109.56150728 -51.00390625 109.5703125 C-52.01771866 109.58063507 -53.03153107 109.59095764 -54.07606506 109.60159302 C-59.50093156 109.60244624 -64.10420579 109.3467173 -69.1875 107.375 C-73.27921003 103.06793681 -74.65120541 99.9979663 -74.56738281 93.99267578 C-73.82718136 88.89213594 -71.11465703 84.71591557 -68.5625 80.3125 C-67.97855469 79.27101807 -67.39460937 78.22953613 -66.79296875 77.15649414 C-64.94741806 73.88226488 -63.07254581 70.62663065 -61.1875 67.375 C-60.60000977 66.35792969 -60.01251953 65.34085937 -59.40722656 64.29296875 C-56.51922561 59.3032797 -53.60874264 54.32736217 -50.68359375 49.359375 C-46.5943159 42.39491298 -42.63810234 35.35660842 -38.71289062 28.29858398 C-18.30307325 -8.1575495 -18.30307325 -8.1575495 0 0 Z M-15.1875 39.375 C-15.75855469 40.40753906 -16.32960938 41.44007813 -16.91796875 42.50390625 C-17.73675133 43.98189708 -18.55578363 45.45974957 -19.375 46.9375 C-19.81191162 47.72584229 -20.24882324 48.51418457 -20.69897461 49.32641602 C-23.3465168 54.09291365 -26.01669831 58.84566397 -28.7109375 63.5859375 C-29.2985083 64.62032959 -29.8860791 65.65472168 -30.49145508 66.72045898 C-31.65307758 68.76293419 -32.8169363 70.80413939 -33.9831543 72.84399414 C-34.51593994 73.78106201 -35.04872559 74.71812988 -35.59765625 75.68359375 C-36.07340088 76.51689209 -36.54914551 77.35019043 -37.03930664 78.20874023 C-38.30510707 80.45302293 -38.30510707 80.45302293 -39.1875 83.375 C-30.9375 83.375 -22.6875 83.375 -14.1875 83.375 C-14.1875 68.855 -14.1875 54.335 -14.1875 39.375 C-14.5175 39.375 -14.8475 39.375 -15.1875 39.375 Z " fill="#e23844" transform="translate(252.1875,134.625)"/>
<path d="M0 0 C9.54020722 8.22779776 15.22300751 18.24249338 16.21484375 30.91015625 C16.67117691 50.88144272 4.0747123 68.63359492 -7.6484375 83.80078125 C-11.52648847 88.82847134 -15.14945375 94.02992186 -18.77661133 99.23999023 C-19.24349365 99.90844971 -19.71037598 100.57690918 -20.19140625 101.265625 C-20.59681641 101.84981201 -21.00222656 102.43399902 -21.41992188 103.03588867 C-23.1339087 105.38894247 -24.9546527 107.64707223 -26.78515625 109.91015625 C-25.06014893 109.9241748 -25.06014893 109.9241748 -23.30029297 109.93847656 C-19.01718993 109.97847009 -14.73479812 110.0442546 -10.45214844 110.11767578 C-8.60165572 110.14583123 -6.75104396 110.16707271 -4.90039062 110.18115234 C-2.23375745 110.20265745 0.43145259 110.24934485 3.09765625 110.30078125 C3.91976593 110.30200989 4.74187561 110.30323853 5.58889771 110.30450439 C10.8982612 110.4386654 14.0283547 111.35103963 18.21484375 114.91015625 C20.41467241 118.67115364 21.21484375 121.11422329 21.21484375 125.47265625 C19.93109649 129.88553744 18.50224679 131.69746691 15.21484375 134.91015625 C11.3859137 136.8428255 8.23591011 137.16270803 3.97509766 137.16894531 C2.73676178 137.17524963 1.4984259 137.18155396 0.2225647 137.18804932 C-1.12115624 137.18446849 -2.46487587 137.18036626 -3.80859375 137.17578125 C-5.19715442 137.17712994 -6.58571462 137.17907218 -7.97427368 137.18157959 C-10.88100695 137.18452321 -13.78761703 137.18025914 -16.69433594 137.17089844 C-20.40524335 137.15952556 -24.11586073 137.1660543 -27.82675743 137.17804337 C-30.69394073 137.18530083 -33.56105629 137.18295591 -36.42824173 137.17778778 C-37.79567118 137.1764609 -39.16310694 137.17806501 -40.53052902 137.18274689 C-56.90746298 137.22650577 -56.90746298 137.22650577 -61.52734375 133.5078125 C-65.20671161 128.52163468 -66.47614717 125.12907455 -65.78515625 118.91015625 C-62.22232551 111.6479542 -57.17942088 105.25669615 -52.22265625 98.91015625 C-44.87663324 89.37967799 -37.72793021 79.73801975 -30.78515625 69.91015625 C-30.21603516 69.10771484 -29.64691406 68.30527344 -29.06054688 67.47851562 C-16.29441662 51.12696094 -16.29441662 51.12696094 -10.78515625 31.91015625 C-11.72515483 27.6025106 -13.02405794 24.67125456 -16.16015625 21.53515625 C-21.1560502 18.44246 -24.84106834 17.30567273 -30.78515625 17.91015625 C-35.49820644 19.38408768 -38.19868994 21.06303824 -41.03515625 25.16015625 C-41.64458532 26.39764322 -42.22705279 27.64868952 -42.78515625 28.91015625 C-47.13322314 38.48306071 -47.13322314 38.48306071 -51.78515625 40.91015625 C-56.15811722 41.75797521 -60.01254024 41.92901122 -63.953125 39.6640625 C-68.08552143 36.24738009 -69.56228517 33.95314115 -70.16015625 28.47265625 C-70.01315935 18.49524171 -63.91106982 9.22545086 -57.19921875 2.265625 C-41.22304713 -12.54796136 -17.19293517 -13.1245907 0 0 Z " fill="#e23844" transform="translate(156.78515625,142.08984375)"/>
<path d="M0 0 C0.7128566 -0.00686325 1.4257132 -0.0137265 2.16017151 -0.02079773 C4.506807 -0.0390364 6.85277202 -0.0352326 9.19946289 -0.02954102 C10.83704342 -0.03410434 12.47462203 -0.03941037 14.11219788 -0.04542542 C17.54102366 -0.0543508 20.96961645 -0.05194012 24.3984375 -0.04199219 C28.78449072 -0.03050478 33.16973856 -0.0507128 37.555686 -0.07990932 C40.93670224 -0.09828841 44.31752611 -0.09797548 47.69857979 -0.0922718 C49.31525362 -0.09211879 50.93194066 -0.09814682 52.54856682 -0.11056328 C54.81283411 -0.12550412 57.07562159 -0.11477548 59.33984375 -0.09765625 C61.26913979 -0.097407 61.26913979 -0.097407 63.2374115 -0.09715271 C68.25434158 0.62185312 71.39347819 2.7946836 74.60961914 6.65405273 C76.65823891 11.66178995 76.31004999 16.47389283 74.36791992 21.42529297 C73.73699995 22.86113026 73.09006457 24.29000343 72.42993164 25.71264648 C72.07961884 26.49926163 71.72930603 27.28587677 71.36837769 28.09632874 C70.21227629 30.68435947 69.03589927 33.26263905 67.85961914 35.84155273 C67.03773868 37.67288111 66.21745368 39.50492625 65.39868164 41.33764648 C63.69684176 45.14367619 61.98818512 48.9465329 60.2746582 52.74731445 C56.73974309 60.60184284 53.28936191 68.49309152 49.8381958 76.38467407 C48.73407476 78.90529551 47.62547359 81.4238979 46.51538086 83.94189453 C42.98717999 91.94929549 39.48422229 99.96564086 36.05236816 108.01489258 C34.43002148 111.81650378 32.79592586 115.61301234 31.16088867 119.40917969 C30.38448304 121.22095398 29.61384758 123.03521327 28.84936523 124.85205078 C27.78916592 127.37066948 26.70940736 129.88005058 25.62524414 132.38842773 C25.3196759 133.12917542 25.01410767 133.8699231 24.69927979 134.63311768 C22.27150011 140.1683131 19.26162046 143.64055207 13.73461914 146.40405273 C8.49794187 146.80687406 5.1831296 146.23492303 0.73461914 143.40405273 C-2.4288816 140.56781069 -3.00699343 137.27795594 -3.40722656 133.12133789 C-3.11122892 127.45102159 -0.32113612 122.47513788 2.04711914 117.40405273 C2.63402554 116.10604968 3.21867598 114.80702462 3.80126953 113.50708008 C5.07574176 110.66876916 6.36054497 107.83543771 7.65161133 105.00463867 C11.02281667 97.58862578 14.26280965 90.11439001 17.52529907 82.65011597 C19.42923121 78.29866916 21.3421121 73.95116089 23.25415039 69.60327148 C27.46627173 60.02053254 31.66563706 50.43224241 35.85961914 40.84155273 C36.16374725 40.14612366 36.46787537 39.45069458 36.78121948 38.73419189 C38.43273062 34.95764399 40.08387145 31.18093442 41.73461914 27.40405273 C41.13406708 27.4004071 40.53351501 27.39676147 39.9147644 27.39300537 C33.65250232 27.35112822 27.39096958 27.28174595 21.12915039 27.1965332 C18.79361269 27.16834344 16.45797994 27.14711903 14.12231445 27.13305664 C10.76081755 27.11160028 7.40046107 27.06493367 4.03930664 27.01342773 C2.99845917 27.0121991 1.95761169 27.01097046 0.88522339 27.00970459 C-5.13616619 26.88861756 -8.67354201 26.40900677 -13.26538086 22.40405273 C-16.15054428 18.94185663 -16.80455951 15.91608389 -16.61694336 11.39624023 C-15.85845625 7.09814664 -13.48211868 4.31654041 -10.07493591 1.76133728 C-6.53437563 0.0509071 -3.92819044 0.01651153 0 0 Z " fill="#e23844" transform="translate(367.265380859375,232.595947265625)"/>
<path d="M0 0 C3.78598814 2.43019509 5.08510161 5.06913104 6.25 9.4375 C5.87584289 15.86067407 4.08686104 21.06933852 1.640625 26.98046875 C1.25416809 27.93750702 0.86771118 28.89454529 0.46954346 29.88058472 C-0.38798563 32.00134502 -1.24987339 34.12034665 -2.11547852 36.23782349 C-4.30919405 41.60466091 -6.47697758 46.98197474 -8.64776611 52.35811424 C-9.47085582 54.39545036 -10.29517847 56.43228463 -11.11962891 58.46907043 C-16.20863778 71.05037099 -21.22580087 83.65993629 -26.234375 96.2734375 C-26.64540215 97.30832369 -27.05642929 98.34320988 -27.4799118 99.40945625 C-31.23371876 108.86102761 -34.98567692 118.31333233 -38.73620605 127.76620483 C-40.72760487 132.78489262 -42.72092862 137.80281236 -44.71546173 142.82025528 C-45.45548944 144.68290463 -46.19482718 146.54582828 -46.93340302 148.4090538 C-48.89565879 153.35910692 -50.87005666 158.30385321 -52.86642456 163.24025345 C-53.7215882 165.36684647 -54.55994458 167.49953156 -55.39770508 169.63302612 C-55.90804437 170.89693854 -56.41929504 172.16048352 -56.93164062 173.42358398 C-57.35916626 174.49809311 -57.78669189 175.57260223 -58.22717285 176.67967224 C-60.29625465 180.42676279 -62.94823029 182.53661515 -66.75 184.4375 C-71.45777 184.82981417 -73.82079697 184.91086758 -78.0625 182.75 C-80.85341284 180.34851686 -82.35883267 178.83813125 -83.75 175.4375 C-84.1366474 169.53500403 -83.28282557 165.12034407 -81.01318359 159.64135742 C-80.7194026 158.9008826 -80.4256216 158.16040777 -80.12293816 157.39749432 C-79.14437944 154.94058304 -78.14648279 152.49202174 -77.1484375 150.04296875 C-76.44399491 148.28524632 -75.74079793 146.52702424 -75.03875732 144.76834106 C-73.14366394 140.03082572 -71.23184447 135.30023149 -69.3164444 130.57089615 C-67.32438639 125.64544934 -65.34604959 120.71449958 -63.36669922 115.78393555 C-60.93073863 109.71829204 -58.49319402 103.65330474 -56.04873657 97.59107971 C-50.97635338 85.00835228 -45.95378266 72.40716343 -40.97997665 59.78515434 C-38.9263405 54.57665551 -36.86559503 49.37096456 -34.80519295 44.1651392 C-33.18194763 40.06214087 -31.5629772 35.95755797 -29.95330811 31.84921265 C-28.45053795 28.01457246 -26.93559487 24.18497008 -25.41126251 20.35885239 C-24.85919976 18.9667502 -24.31163758 17.5728531 -23.76903534 16.17703629 C-23.03010697 14.27776304 -22.27351776 12.38538929 -21.51611328 10.4934082 C-20.89169846 8.90965141 -20.89169846 8.90965141 -20.25466919 7.29389954 C-15.97464937 -0.83110675 -8.57490428 -4.2511178 0 0 Z " fill="#e23844" transform="translate(341.75,174.5625)"/>
</svg>
