<?xml version="1.0" encoding="UTF-8"?>
<svg version="1.1" xmlns="http://www.w3.org/2000/svg" width="512" height="512">
<path d="M0 0 C1.66095703 -0.0299707 1.66095703 -0.0299707 3.35546875 -0.06054688 C11.35324103 -0.05579196 16.83111119 0.78192636 22.76660156 6.31860352 C27.93202276 11.826126 31.86422592 17.99362248 35.75 24.4375 C37.05200043 26.55944419 38.35543485 28.68050903 39.66015625 30.80078125 C40.66199951 32.43394287 40.66199951 32.43394287 41.68408203 34.10009766 C45.11979697 39.65034857 48.65586547 45.13548994 52.1875 50.625 C53.52392079 52.71193018 54.85987757 54.79915758 56.1953125 56.88671875 C57.85213003 59.47631151 59.5093994 62.06541603 61.17871094 64.64697266 C71.88497198 81.20782844 71.88497198 81.20782844 70.32421875 92.015625 C68.80729205 98.41354715 65.80348567 103.18193312 60.75 107.4375 C60.09 107.4375 59.43 107.4375 58.75 107.4375 C58.75 108.0975 58.75 108.7575 58.75 109.4375 C59.57242187 109.52128906 60.39484375 109.60507813 61.2421875 109.69140625 C80.87652382 113.86752901 96.4684739 130.59492223 106.9375 146.625 C118.92605712 166.72557481 122.92425321 192.27820098 117.25 215.125 C110.4452738 237.80742066 95.70306888 257.99907335 74.921875 269.6328125 C54.82858301 280.37334163 31.17568372 284.15595225 8.87890625 278.4140625 C-5.74190606 273.85076278 -17.76846593 267.61791076 -29.25 257.4375 C-30.28060547 256.54998047 -30.28060547 256.54998047 -31.33203125 255.64453125 C-38.22529069 249.28476236 -43.11476248 241.21587448 -48.25 233.4375 C-48.99443359 233.94410156 -48.99443359 233.94410156 -49.75390625 234.4609375 C-50.77291016 235.12996094 -50.77291016 235.12996094 -51.8125 235.8125 C-52.47378906 236.25335938 -53.13507813 236.69421875 -53.81640625 237.1484375 C-60.50358664 240.69060368 -66.9403024 240.73457953 -74.35083008 240.72802734 C-75.99612953 240.73810318 -75.99612953 240.73810318 -77.67466736 240.74838257 C-81.28966846 240.76733259 -84.90448361 240.77128527 -88.51953125 240.7734375 C-91.04147924 240.77986742 -93.56342649 240.78659593 -96.08537292 240.79360962 C-101.3685323 240.80557484 -106.65164478 240.80937709 -111.93481445 240.80810547 C-118.02029275 240.80690505 -124.10541583 240.82799496 -130.1908043 240.8595928 C-136.06891006 240.88901425 -141.94687653 240.89607839 -147.82504845 240.89488602 C-150.31482074 240.8972396 -152.80459591 240.90604936 -155.29432106 240.92155075 C-158.78350568 240.9412413 -162.2717858 240.93535975 -165.76098633 240.92333984 C-166.78002045 240.93457886 -167.79905457 240.94581787 -168.84896851 240.95739746 C-177.27015521 240.88402614 -185.33919683 238.94269165 -191.625 233 C-192.23085937 232.44441406 -192.83671875 231.88882813 -193.4609375 231.31640625 C-195.25 229.4375 -195.25 229.4375 -196.8046875 227.109375 C-200.53811968 223.03003377 -205.1845042 220.76358392 -210 218.125 C-210.98355469 217.57521484 -211.96710938 217.02542969 -212.98046875 216.45898438 C-215.39860573 215.10905354 -217.82168293 213.76900387 -220.25 212.4375 C-220.36214844 213.44425781 -220.47429687 214.45101562 -220.58984375 215.48828125 C-222.89433329 231.44336448 -233.2666693 245.26480153 -244.25 256.4375 C-244.93578125 257.13617188 -245.6215625 257.83484375 -246.328125 258.5546875 C-264.04300382 275.41662771 -287.93982763 281.28062465 -311.75 280.71875 C-335.2968562 279.75765383 -356.19679715 268.21613913 -372.25 251.4375 C-390.16304799 230.80940815 -394.73865175 205.98776241 -393.25 179.4375 C-392.58120542 173.8704044 -391.1266432 168.72399163 -389.25 163.4375 C-388.87617188 162.36757813 -388.50234375 161.29765625 -388.1171875 160.1953125 C-379.81890636 138.59779935 -363.44409727 121.57966814 -342.625 111.8671875 C-320.1177165 102.33285213 -295.21984142 101.29889662 -272.3125 110.25 C-265.65858614 112.98888245 -259.3714039 116.3160961 -254.25 121.4375 C-253.9102878 124.44637945 -253.70034883 126.53465473 -254.25 129.4375 C-256.3125 132 -256.3125 132 -259.25 133.4375 C-265.07067341 133.13001971 -269.25597496 131.17713899 -274.3125 128.5625 C-291.41100453 120.19861747 -310.11488319 118.70570436 -328.23974609 124.70556641 C-339.11452308 128.6650735 -348.22165802 134.00485303 -356.25 142.4375 C-356.96671875 143.1696875 -357.6834375 143.901875 -358.421875 144.65625 C-372.68034595 159.87957988 -376.87053269 177.81529233 -376.58984375 198.15234375 C-375.94101532 216.02608631 -367.56203062 231.66520655 -355.25 244.4375 C-338.55290878 259.09948869 -319.63334732 264.96273287 -297.71826172 263.66064453 C-278.70683946 261.94190665 -261.71738561 251.55435084 -249.4140625 237.31640625 C-241.73178792 227.09648501 -237.59186125 215.66421353 -234.25 203.4375 C-235.16265625 203.15132812 -236.0753125 202.86515625 -237.015625 202.5703125 C-239.62147188 201.65763666 -241.67759275 200.75068798 -244 199.3125 C-246.9133814 197.27092585 -246.9133814 197.27092585 -249.25 197.4375 C-249.45302734 198.70980469 -249.45302734 198.70980469 -249.66015625 200.0078125 C-252.52152313 215.59969189 -259.09027271 228.60200926 -272.0625 238.1875 C-286.08507442 247.45702389 -300.7843629 250.44302042 -317.37109375 247.97265625 C-332.83209054 244.18033628 -345.66595136 234.81722887 -354.25 221.4375 C-361.82495307 207.35533991 -364.06812372 190.98589406 -359.6875 175.4375 C-354.13141303 160.28453554 -344.63878276 148.87331391 -330.25 141.4375 C-315.06769716 135.32369629 -299.16332362 134.06209734 -283.80078125 140.45703125 C-280.91468107 141.84049399 -278.52316098 143.16433902 -276.25 145.4375 C-275.57960894 152.3648743 -275.57960894 152.3648743 -277.8125 155.9375 C-281.12844437 157.97808115 -283.52176815 158.11417733 -287.25 157.4375 C-289.34138728 156.79654644 -291.42411184 156.12700022 -293.5 155.4375 C-304.31908514 151.95506824 -313.58669596 152.79830539 -323.81640625 157.65625 C-334.03224927 163.27106448 -340.27242345 171.22310771 -343.828125 182.2265625 C-345.90711093 193.12198878 -344.64612976 204.1019462 -338.9296875 213.640625 C-332.94413719 222.2101014 -325.13005554 228.49035526 -314.89453125 231.01953125 C-303.50007224 232.82042802 -293.76987837 231.30113163 -283.875 225.4375 C-283.00875 224.7775 -282.1425 224.1175 -281.25 223.4375 C-280.445625 222.839375 -279.64125 222.24125 -278.8125 221.625 C-270.5927052 214.608102 -267.31749649 204.706839 -265.97265625 194.2890625 C-265.71977796 189.33264793 -267.1223844 184.97410782 -268.69140625 180.34375 C-270.12393224 172.89060778 -267.60588712 167.22102066 -264.125 160.8125 C-263.57585937 159.72582031 -263.57585937 159.72582031 -263.015625 158.6171875 C-259.98846003 152.93353082 -256.09300103 148.35900052 -250.25 145.4375 C-241.58513523 144.07390574 -235.61398635 147.20674823 -228.25 151.4375 C-226.95875929 152.16481923 -225.66707563 152.89135252 -224.375 153.6171875 C-220.98479817 155.53169428 -217.61376963 157.47695971 -214.25 159.4375 C-210.2444022 155.47707811 -206.35103903 151.42315964 -202.5 147.3125 C-201.91089844 146.69246094 -201.32179687 146.07242188 -200.71484375 145.43359375 C-200.15410156 144.83417969 -199.59335938 144.23476563 -199.015625 143.6171875 C-198.50805664 143.07819824 -198.00048828 142.53920898 -197.47753906 141.98388672 C-196.02637572 140.33687913 -196.02637572 140.33687913 -195.25 137.4375 C-196.20777344 136.72207031 -197.16554687 136.00664062 -198.15234375 135.26953125 C-207.51719058 128.26523023 -216.82871046 121.19461271 -226.10888672 114.07861328 C-229.65350566 111.36174572 -233.20193377 108.64986299 -236.75 105.9375 C-238.16668515 104.85419084 -239.58335181 103.7708575 -241 102.6875 C-241.70125 102.15125 -242.4025 101.615 -243.125 101.0625 C-245.25 99.4375 -247.375 97.8125 -249.5 96.1875 C-250.20157227 95.6510083 -250.90314453 95.1145166 -251.62597656 94.56176758 C-253.03940651 93.48089983 -254.45281804 92.40000799 -255.86621094 91.3190918 C-259.45724701 88.57283495 -263.0486248 85.82702697 -266.640625 83.08203125 C-274.0665762 77.40648284 -281.48477953 71.72129536 -288.890625 66.01953125 C-292.7547203 63.04723946 -296.62717391 60.08590172 -300.5 57.125 C-301.21164307 56.58077393 -301.92328613 56.03654785 -302.65649414 55.47583008 C-306.35586757 52.6474347 -310.05730914 49.82179655 -313.76171875 47 C-334.48037527 31.20712473 -334.48037527 31.20712473 -337.25 28.4375 C-337.84425524 21.18758607 -337.84425524 21.18758607 -335.58609009 18.33726501 C-332.65932136 15.95714583 -331.18432748 15.93639584 -327.44677734 15.93579102 C-326.27811127 15.92641006 -325.10944519 15.91702911 -323.90536499 15.90736389 C-322.64495392 15.91859787 -321.38454285 15.92983185 -320.0859375 15.94140625 C-318.78355133 15.93995102 -317.48116516 15.93849579 -316.13931274 15.93699646 C-313.38026746 15.93561248 -310.62174194 15.9481589 -307.86279297 15.97094727 C-304.35264188 15.99916522 -300.84336489 15.99664082 -297.33315086 15.98385715 C-293.95899153 15.97515633 -290.58508229 15.99038556 -287.2109375 16.00390625 C-285.96267181 16.00097061 -284.71440613 15.99803497 -283.42831421 15.99501038 C-270.36946209 16.13448804 -260.71353325 19.17607404 -251.23046875 28.40234375 C-248.14445324 31.77747681 -245.31934955 35.33645632 -242.51953125 38.94921875 C-241.80108032 39.87432251 -241.80108032 39.87432251 -241.06811523 40.81811523 C-240.13132854 42.03161138 -239.20197349 43.25089474 -238.28149414 44.47680664 C-234.69687545 49.16285559 -230.99662631 53.5219579 -225.25 55.4375 C-220.16487345 55.8542847 -215.08469285 56.00707507 -209.98461914 56.1171875 C-208.30548183 56.16353961 -206.62678111 56.23141295 -204.94946289 56.32226562 C-194.16697623 56.89510861 -187.09381326 56.08345983 -178.81706238 48.77386475 C-177.79234013 47.81964504 -176.77703474 46.85520051 -175.77197266 45.8802948 C-156.60239147 27.70797618 -135.69707741 23.89424035 -110.00854492 23.99145508 C-106.55913399 24.00000835 -103.11135948 23.97104819 -99.66210938 23.93945312 C-97.43750049 23.93784162 -95.21288871 23.93841767 -92.98828125 23.94140625 C-91.97341141 23.93017227 -90.95854156 23.91893829 -89.91291809 23.90736389 C-80.3309233 23.99955318 -71.93097098 26.58533164 -64.25 32.4375 C-63.0125 33.2728125 -63.0125 33.2728125 -61.75 34.125 C-55.35244924 40.04273446 -50.3399314 48.71804878 -49.25 57.4375 C-49.23753579 59.77080004 -49.23637095 62.10420647 -49.25 64.4375 C-43.19924881 64.31920835 -37.14866043 64.19495662 -31.09814453 64.06518555 C-29.03991013 64.02187991 -26.98164082 63.98020171 -24.92333984 63.94018555 C-21.96441121 63.88237725 -19.0056576 63.81871304 -16.046875 63.75390625 C-15.12694763 63.73719376 -14.20702026 63.72048126 -13.25921631 63.70326233 C-11.96833099 63.6733445 -11.96833099 63.6733445 -10.65136719 63.64282227 C-9.89635925 63.62727798 -9.14135132 63.6117337 -8.36346436 63.59571838 C-6.22520329 63.43564367 -4.31010916 63.01933632 -2.25 62.4375 C-2.05252781 61.04304251 -1.86751413 59.64681848 -1.6875 58.25 C-1.58308594 57.47269531 -1.47867187 56.69539063 -1.37109375 55.89453125 C-1.2400336 53.23527851 -1.68924904 51.02979314 -2.25 48.4375 C-2.98637695 48.44797363 -3.72275391 48.45844727 -4.48144531 48.46923828 C-7.82092876 48.51083702 -11.16035765 48.53683864 -14.5 48.5625 C-15.65886719 48.57925781 -16.81773437 48.59601563 -18.01171875 48.61328125 C-19.12675781 48.61972656 -20.24179687 48.62617188 -21.390625 48.6328125 C-22.41704102 48.64328613 -23.44345703 48.65375977 -24.50097656 48.66455078 C-27.30179449 48.43322212 -28.89775553 47.93626932 -31.25 46.4375 C-33.3315902 43.76116974 -33.24587591 42.31996332 -33.125 38.875 C-32.25 35.4375 -32.25 35.4375 -30.8046875 33.765625 C-26.84889418 31.70909636 -22.89833913 31.86369414 -18.5 31.75 C-17.61183594 31.71583984 -16.72367187 31.68167969 -15.80859375 31.64648438 C-13.62252197 31.56421286 -11.43684049 31.49499828 -9.25 31.4375 C-9.49758057 30.83800537 -9.74516113 30.23851074 -10.00024414 29.62084961 C-11.12142195 26.8788703 -12.21704579 24.12735157 -13.3125 21.375 C-13.70244141 20.43205078 -14.09238281 19.48910156 -14.49414062 18.51757812 C-16.59521796 13.18121357 -18.13747497 9.12953237 -16.25 3.4375 C-11.62920181 -1.0404412 -6.05398387 -0.03822837 0 0 Z M2.75 16.4375 C3.49469585 18.57119725 4.23992404 20.70470479 4.98608398 22.83789062 C5.62462674 24.66651191 6.26082752 26.49595256 6.89477539 28.32617188 C8.30996359 32.39801685 9.73123843 36.45634211 11.328125 40.4609375 C14.60531119 48.84224702 16.6655159 56.40404685 13.86328125 65.23046875 C11.39308633 70.78635566 8.3484765 74.86348782 2.75 77.4375 C-3.49877453 79.68685887 -9.30241694 79.71176173 -15.90161133 79.67700195 C-17.63469292 79.68002319 -17.63469292 79.68002319 -19.40278625 79.68310547 C-21.90451125 79.68664302 -24.40624519 79.68589371 -26.90796852 79.68132973 C-30.87253118 79.67572398 -34.8369097 79.6844215 -38.80143738 79.6985321 C-50.07116414 79.73615475 -61.34080884 79.7544811 -72.6105957 79.74291992 C-78.84380184 79.73668337 -85.07671785 79.74838414 -91.30985278 79.77936524 C-94.60117395 79.79488984 -97.89179811 79.79823773 -101.18314552 79.78478432 C-104.85928327 79.7704048 -108.53413754 79.78678491 -112.21020508 79.80981445 C-113.28534363 79.79804672 -114.36048218 79.78627899 -115.46820068 79.77415466 C-126.27670039 79.90638679 -133.9061484 84.77135309 -142.375 91.0625 C-143.0453125 91.53945312 -143.715625 92.01640625 -144.40625 92.5078125 C-146.08176849 93.73880568 -147.67468695 95.08063036 -149.25 96.4375 C-149.25 100.43032941 -147.77191924 101.59081592 -145.25 104.625 C-144.5075 105.52605469 -143.765 106.42710937 -143 107.35546875 C-142.4225 108.04253906 -141.845 108.72960937 -141.25 109.4375 C-137.17500769 108.01753898 -134.12079345 106.03515179 -130.6875 103.4375 C-124.55155026 98.80787911 -120.99372091 97.13741494 -113.24023438 97.1628418 C-112.43652908 97.15773087 -111.63282379 97.15261993 -110.80476379 97.14735413 C-108.15101656 97.13346637 -105.49752923 97.13441406 -102.84375 97.13671875 C-100.99816796 97.1328318 -99.15258682 97.12849713 -97.30700684 97.12373352 C-93.44015603 97.11627339 -89.57339654 97.11656141 -85.70654297 97.12182617 C-80.74983216 97.12762516 -75.79349449 97.11067848 -70.8368454 97.0874815 C-67.02616183 97.07275585 -63.21556842 97.07187078 -59.40486145 97.07499123 C-57.57720703 97.07447758 -55.74954762 97.06923168 -53.92192078 97.05917931 C-51.36762154 97.04685271 -48.81405303 97.05358322 -46.25976562 97.06518555 C-45.50431961 97.05754181 -44.7488736 97.04989807 -43.97053528 97.04202271 C-40.8326572 97.07355155 -38.57625304 97.26463016 -35.78063965 98.7459259 C-34.25 100.4375 -34.25 100.4375 -33.75 103.875 C-34.25 107.4375 -34.25 107.4375 -35.81350708 109.63595581 C-39.08222626 112.05284855 -41.83096054 111.93996562 -45.73388672 111.82470703 C-46.85682884 111.81611916 -46.85682884 111.81611916 -48.00245667 111.80735779 C-49.62689346 111.79326314 -51.2512728 111.77045953 -52.87548447 111.73996353 C-55.45918656 111.69479682 -58.04144587 111.67972292 -60.6255188 111.67355347 C-67.97139268 111.65269467 -75.31617226 111.59494094 -82.66113281 111.47558594 C-87.15958909 111.40463063 -91.65612004 111.38356151 -96.15509415 111.39229965 C-97.85742252 111.38605703 -99.5597984 111.36154027 -101.26156235 111.31726456 C-114.20943372 110.98781408 -121.55393882 113.79237402 -131.25 122.4375 C-128.1660126 127.19313895 -125.00750548 131.83031596 -121.5234375 136.3046875 C-120.8840625 137.12839844 -120.2446875 137.95210938 -119.5859375 138.80078125 C-118.2794594 140.47421834 -116.9643306 142.14093781 -115.640625 143.80078125 C-108.45032324 153.13070722 -104.74458651 162.58042877 -106.25 174.4375 C-107.97721887 182.08223202 -111.17993816 188.3772027 -117.25 193.4375 C-126.42600155 199.10710959 -135.50371942 201.14065573 -146.19921875 198.7890625 C-153.88015733 196.28231267 -159.74898025 192.18902963 -164.25 185.4375 C-169.41910612 187.09202502 -173.46252309 190.23480207 -177.8125 193.375 C-178.94461914 194.18227539 -178.94461914 194.18227539 -180.09960938 195.00585938 C-183.513001 197.4448555 -186.89961852 199.91247346 -190.25 202.4375 C-189.15575057 209.54368456 -185.5617248 216.88901134 -180 221.5625 C-176.56923812 223.90165583 -174.96260641 224.56297657 -170.88729858 224.59140015 C-169.97055359 224.60000061 -169.05380859 224.60860107 -168.10928345 224.61746216 C-166.59604996 224.62385208 -166.59604996 224.62385208 -165.05224609 224.63037109 C-163.46174438 224.64263733 -163.46174438 224.64263733 -161.83911133 224.65515137 C-158.31722584 224.68003686 -154.79538081 224.69653138 -151.2734375 224.7109375 C-150.071675 224.71626118 -148.86991249 224.72158485 -147.63173294 224.72706985 C-141.26832974 224.75381781 -134.90494626 224.77318565 -128.54150391 224.78759766 C-121.97079955 224.8042303 -115.40059823 224.8489926 -108.83008385 224.8999691 C-103.77710399 224.93364493 -98.72424332 224.94517567 -93.67116165 224.95082474 C-91.24948924 224.95753846 -88.82782471 224.97276349 -86.40626144 224.99671555 C-83.01179988 225.02836914 -79.61869179 225.02840252 -76.22412109 225.02099609 C-75.22744415 225.03740143 -74.23076721 225.05380676 -73.20388794 225.07070923 C-66.67347302 225.01252648 -62.28868971 223.69082958 -57.25 219.4375 C-54.44054496 215.8936542 -53.69513056 212.65741467 -53.00390625 208.23046875 C-52.80861328 207.01552734 -52.61332031 205.80058594 -52.41210938 204.54882812 C-52.21423828 203.25396484 -52.01636719 201.95910156 -51.8125 200.625 C-51.59694201 199.27649409 -51.38013121 197.92818788 -51.16210938 196.58007812 C-50.14484688 190.26310133 -49.17374047 183.93937504 -48.21484375 177.61328125 C-44.8894409 156.05163656 -39.01505534 136.1670998 -21.171875 121.9921875 C-11.15736506 114.67890142 -0.51002837 110.25225983 11.3671875 106.80859375 C13.54171651 106.15967222 15.71619421 105.51057872 17.890625 104.86132812 C21.27332468 103.86155792 24.65709372 102.86559156 28.04199219 101.87329102 C31.34085317 100.90307974 34.63535402 99.91904948 37.9296875 98.93359375 C38.94118866 98.64181747 39.95268982 98.3500412 40.99484253 98.04942322 C45.99178455 96.54859419 49.99579864 95.25522505 53.75 91.4375 C55.01768453 89.18754756 55.01768453 89.18754756 54.75 86.4375 C52.48812526 80.85867583 49.18990176 75.80928981 45.875 70.8125 C44.8949452 69.3169879 43.91582515 67.82086292 42.9375 66.32421875 C42.42058594 65.53450684 41.90367187 64.74479492 41.37109375 63.93115234 C38.50274537 59.51890681 35.69265591 55.06971445 32.875 50.625 C28.12569283 43.15280048 23.36396943 35.68881012 18.5625 28.25 C18.02189941 27.40655029 17.48129883 26.56310059 16.92431641 25.6940918 C16.4194873 24.91461182 15.9146582 24.13513184 15.39453125 23.33203125 C14.73481323 22.30879761 14.73481323 22.30879761 14.06176758 21.26489258 C12.72852765 19.40758737 11.52885845 17.87895525 9.75 16.4375 C6.12464024 16.1871423 6.12464024 16.1871423 2.75 16.4375 Z M-305.25 32.4375 C-302.34368249 35.39447563 -299.40657093 37.91765028 -296.0625 40.375 C-290.9471703 44.16782983 -285.8679471 48.00268248 -280.8125 51.875 C-279.71772339 52.71309204 -279.71772339 52.71309204 -278.60083008 53.56811523 C-273.2641285 57.65583951 -267.9359384 61.75454494 -262.609375 65.85546875 C-256.56362877 70.5059032 -250.49983784 75.13283244 -244.43945312 79.76416016 C-240.87571008 82.48783264 -237.31289369 85.21271663 -233.75 87.9375 C-232.33333796 89.02083938 -230.91667128 90.10417271 -229.5 91.1875 C-204 110.6875 -204 110.6875 -201.87451172 112.31298828 C-200.45962051 113.3948874 -199.04458172 114.47659354 -197.62939453 115.55810547 C-194.05932057 118.28680872 -190.49197609 121.01895134 -186.9296875 123.7578125 C-177.79218942 130.77641059 -168.57232844 137.66625998 -159.25 144.4375 C-158.45335937 144.02757812 -157.65671875 143.61765625 -156.8359375 143.1953125 C-155.77632812 142.65648437 -154.71671875 142.11765625 -153.625 141.5625 C-152.58085937 141.02882813 -151.53671875 140.49515625 -150.4609375 139.9453125 C-147.43198375 138.52295709 -144.44356666 137.4252999 -141.25 136.4375 C-144.31503742 131.56949939 -147.55559113 126.97507433 -151.25 122.5625 C-155.29893078 117.69567169 -159.07756035 112.67355254 -162.8125 107.5625 C-169.96276548 97.77818619 -177.29164437 88.13640002 -184.6628418 78.51782227 C-186.25 76.4375 -186.25 76.4375 -187.45410156 74.19921875 C-189.81388477 71.88434714 -191.75975029 71.95435048 -194.97462463 71.90879822 C-196.11833778 71.92107201 -196.11833778 71.92107201 -197.28515625 71.93359375 C-198.47509438 71.9194619 -198.47509438 71.9194619 -199.68907166 71.90504456 C-202.230475 71.8763578 -204.7709479 71.87331478 -207.3125 71.875 C-234.49307078 71.83580856 -234.49307078 71.83580856 -245.4375 61.5625 C-249.8903905 56.99060129 -253.71232056 51.88873822 -257.6015625 46.83984375 C-258.04918945 46.26991699 -258.49681641 45.69999023 -258.95800781 45.11279297 C-260.16704469 43.54506601 -261.3165329 41.93191734 -262.4609375 40.31640625 C-266.83034718 35.27399926 -272.28059111 32.75688177 -278.86816406 32.04833984 C-282.88401071 31.94681844 -286.86175392 31.99854219 -290.875 32.125 C-292.2746993 32.15013944 -293.6744426 32.17294257 -295.07421875 32.19335938 C-298.4672912 32.25186062 -301.85805895 32.33379531 -305.25 32.4375 Z M-174.25 66.4375 C-167.32 75.3475 -167.32 75.3475 -160.25 84.4375 C-153.14659988 79.70894609 -153.14659988 79.70894609 -146.1875 74.8125 C-135.00992374 66.97435441 -125.7888826 65.1441506 -112.22265625 65.0234375 C-110.86501418 65.00470246 -109.50738346 64.98512734 -108.14976501 64.9647522 C-104.59726696 64.91367133 -101.04473125 64.87391798 -97.49206543 64.83660889 C-93.85854971 64.79641738 -90.22518735 64.74539458 -86.59179688 64.6953125 C-79.47797719 64.59883854 -72.36406104 64.51434359 -65.25 64.4375 C-65.37651407 63.00191407 -65.51246004 61.56715741 -65.65234375 60.1328125 C-65.72702881 59.33375488 -65.80171387 58.53469727 -65.87866211 57.71142578 C-66.96521499 51.05780743 -73.02702221 46.21127166 -78.25 42.4375 C-83.17659484 39.75923497 -88.28723675 40.1139572 -93.74609375 40.1015625 C-94.77122574 40.0949057 -95.79635773 40.0882489 -96.85255432 40.08139038 C-99.02367362 40.07127399 -101.19482395 40.06657305 -103.3659668 40.06689453 C-106.64491068 40.06255635 -109.92246909 40.0263224 -113.20117188 39.98828125 C-139.06815765 39.84763616 -156.08327755 48.27077755 -174.25 66.4375 Z M14.75 122.4375 C15.40572455 127.70641487 17.02231167 132.32842102 18.875 137.265625 C19.18195801 138.09584167 19.48891602 138.92605835 19.80517578 139.78143311 C20.78179692 142.41867014 21.76592743 145.05303567 22.75 147.6875 C23.41192328 149.47378611 24.07338652 151.26024277 24.734375 153.046875 C27.46954754 160.86002036 27.46954754 160.86002036 30.75 168.4375 C32.42018889 168.91889012 34.11300676 169.32282195 35.8125 169.6875 C42.31030201 171.39211819 47.16417116 173.81147938 51.12890625 179.37109375 C54.73596176 186.22072879 55.17154133 194.46210535 53.0546875 201.87109375 C50.39804391 207.77598643 46.13705936 211.08015252 40.5625 214.25 C33.71754257 216.38203592 26.25954637 216.52896391 19.59765625 213.6015625 C13.81828863 209.96043872 9.92950022 204.40068831 8.125 197.859375 C6.97198639 190.41282878 8.07595776 184.30043002 12.49609375 178.19140625 C13.11677734 177.32322266 13.11677734 177.32322266 13.75 176.4375 C14.18183594 175.84324219 14.61367188 175.24898437 15.05859375 174.63671875 C16.14540099 171.17981209 14.74707231 168.95433883 13.375 165.6875 C12.89289063 164.51703125 12.41078125 163.3465625 11.9140625 162.140625 C11.52992188 161.24859375 11.14578125 160.3565625 10.75 159.4375 C3.63049421 161.01128549 0.246217 166.05178792 -3.671875 171.84375 C-9.41463696 181.28234886 -10.43690656 191.5825689 -8.1875 202.25 C-5.16368399 213.35132451 1.14521637 221.22953009 10.75 227.4375 C20.86669608 232.87522414 31.80966913 234.31561028 43.0625 231.3125 C53.74415677 227.56516467 62.01552186 220.23836225 67.125 210.25 C71.81820853 200.47457368 72.63263872 188.81487099 69.125 178.4375 C64.77886776 168.28639394 57.24542863 160.90456497 47.75 155.4375 C46.24065783 152.41881566 46.57489328 149.76452771 46.75 146.4375 C48.75 143.4375 48.75 143.4375 50.5625 142.8984375 C58.88097981 142.57164008 63.63552049 146.95726832 69.7265625 152.109375 C79.16521389 160.84116703 85.4525505 174.00357991 85.98828125 186.84375 C86.3769454 204.7451637 82.6824366 218.80902536 70.19140625 232.08203125 C58.03382158 243.81166894 43.61980643 247.91321412 27.10546875 247.64453125 C13.86485111 247.17748501 1.14815746 241.48904391 -8.48046875 232.3671875 C-19.0792351 220.80915091 -24.88960699 206.10822615 -24.4921875 190.41015625 C-23.3266116 176.10365212 -18.2641219 161.20597716 -7.25 151.4375 C-4.68120588 149.49156108 -2.0780616 147.65505971 0.61328125 145.8828125 C2.83645388 144.47739444 2.83645388 144.47739444 4.75 142.4375 C3.1 137.8175 1.45 133.1975 -0.25 128.4375 C-11.41088481 131.2277212 -18.94525411 140.78561888 -24.93359375 150.0390625 C-29.58630237 158.2770254 -31.18789126 166.88975237 -32.6953125 176.11035156 C-33.10545865 178.57050638 -33.53471011 181.02267257 -33.984375 183.47558594 C-34.66651736 187.20321588 -35.30885288 190.93614432 -35.92941284 194.67449951 C-36.18184821 196.16570416 -36.44505084 197.65513196 -36.71975708 199.14239502 C-38.54812323 209.14419376 -38.38942314 216.29197591 -33.25 225.4375 C-32.77022705 226.34193848 -32.2904541 227.24637695 -31.79614258 228.17822266 C-22.31737928 245.61457646 -5.83641189 257.0599673 12.8125 262.875 C31.98320361 267.4831504 51.87867741 264.73788642 68.75 254.4375 C85.4178397 243.32560687 96.98334198 228.16143861 102.08984375 208.53125 C105.80226523 188.86490957 102.2514315 168.72466481 91.16015625 152.046875 C79.03622515 135.72949009 63.26059871 125.16580165 43.3203125 120.9375 C39.17034578 120.35632304 35.12384328 120.15289371 30.9375 120.125 C29.89783081 120.11666138 29.89783081 120.11666138 28.8371582 120.1081543 C23.87823636 120.17744772 19.52293585 121.09594692 14.75 122.4375 Z M-182.25 148.4375 C-184.27909908 150.64998705 -186.21339118 152.87706632 -188.125 155.1875 C-189.18334411 156.45442287 -190.24320609 157.72007953 -191.3046875 158.984375 C-191.80709961 159.58572266 -192.30951172 160.18707031 -192.82714844 160.80664062 C-194.25 162.4375 -194.25 162.4375 -196.6328125 164.703125 C-198.59098301 166.40796513 -198.59098301 166.40796513 -198.25 169.4375 C-190.33 173.3975 -190.33 173.3975 -182.25 177.4375 C-173.80523445 172.81746834 -173.80523445 172.81746834 -167.7421875 165.70703125 C-167.07662527 162.38390716 -167.05473613 160.62639101 -168.25 157.4375 C-171.85147004 153.67826163 -175.70563032 150.95524244 -180.25 148.4375 C-180.91 148.4375 -181.57 148.4375 -182.25 148.4375 Z M-151.75 160.75 C-153.71301038 165.57573386 -154.40329849 169.40315318 -152.51953125 174.359375 C-149.89199789 179.37849995 -146.6169131 182.64852897 -141.25 184.4375 C-134.78291918 184.9764234 -131.55406103 184.21154343 -126.25 180.4375 C-122.23338618 176.10378509 -120.81099559 172.61159969 -120.91015625 166.62890625 C-121.64549501 161.88723904 -124.27020946 158.1481928 -127.859375 155.046875 C-131.41642703 152.72989615 -134.95527029 151.7449672 -139.19921875 151.9921875 C-144.51298573 153.14603404 -148.79384891 156.21168353 -151.75 160.75 Z M-245.25 161.4375 C-246.5084176 163.34285058 -247.7067028 165.28809853 -248.875 167.25 C-249.52726563 168.32894531 -250.17953125 169.40789062 -250.8515625 170.51953125 C-252.64831941 173.40116406 -252.64831941 173.40116406 -251.25 176.4375 C-249.06530773 178.00176812 -249.06530773 178.00176812 -246.31640625 179.44140625 C-245.28265869 180.0130249 -244.24891113 180.58464355 -243.18383789 181.17358398 C-242.07129639 181.77630127 -240.95875488 182.37901855 -239.8125 183 C-237.53119484 184.2525037 -235.24994526 185.50510865 -232.96875 186.7578125 C-231.834375 187.37688477 -230.7 187.99595703 -229.53125 188.63378906 C-226.55699683 190.26874311 -223.60254479 191.93251676 -220.65625 193.6171875 C-219.8305249 194.08697021 -219.0047998 194.55675293 -218.15405273 195.04077148 C-216.61932554 195.91526675 -215.08746431 196.79481538 -213.55883789 197.67993164 C-211.82227941 198.6601371 -210.0399779 199.5586273 -208.25 200.4375 C-205.95390672 199.55161929 -205.95390672 199.55161929 -205 196.6875 C-202.89093276 192.77066084 -200.76715956 191.09490945 -197.25 188.4375 C-200.3367661 185.99985455 -203.5411263 184.07628038 -206.984375 182.1796875 C-208.10924316 181.55779541 -209.23411133 180.93590332 -210.39306641 180.29516602 C-211.59534179 179.6342122 -212.79765362 178.97332467 -214 178.3125 C-215.83291348 177.30121526 -217.66528431 176.28895264 -219.49758911 175.27656555 C-220.71003022 174.60670539 -221.92265562 173.93717869 -223.13546753 173.26799011 C-228.72862218 170.17985933 -234.29445437 167.04437605 -239.84277344 163.87646484 C-242.39392048 162.17010531 -242.39392048 162.17010531 -245.25 161.4375 Z M23.75 188.4375 C22.58789781 190.83101495 22.58789781 190.83101495 22.75 193.4375 C24.37155629 196.92384601 25.51453292 198.28052194 28.75 200.4375 C33.64757389 200.26416872 33.64757389 200.26416872 37.6875 197.75 C39.1113395 194.6510552 39.30153827 192.81567188 38.75 189.4375 C36.45853575 186.42586127 34.98996182 184.71649141 31.25 183.875 C27.85017193 184.63996132 26.17085748 185.94939648 23.75 188.4375 Z " fill="#e23844" transform="translate(393.25,115.5625)"/>
<path d="M0 0 C5.43475883 4.51706972 8.91391719 9.98571516 10 17 C10.34292946 24.50158193 8.89193858 30.25291534 4 36 C-1.46412963 41.7188676 -6.35700937 44.02093088 -14.3125 44.375 C-20.95764355 44.21270341 -26.08964608 42.66550579 -31.04296875 38.12890625 C-37.36112426 31.23755726 -38.47361307 25.73883564 -38.30859375 16.44921875 C-37.73328372 10.01885471 -35.40077864 6.06157328 -30.75 1.6875 C-21.31730618 -5.67802901 -10.29327868 -6.03985774 0 0 Z M-22 17 C-22.83333333 20 -22.83333333 20 -22 23 C-20.08333333 26.08333333 -20.08333333 26.08333333 -17 28 C-13.42813335 28 -11.11888401 27.74592267 -8.125 25.75 C-6.61536655 23.4016813 -6.13336945 21.80075852 -6 19 C-7.62155629 15.51365399 -8.76453292 14.15697806 -12 12 C-16.99341956 11.08015955 -19.03910238 13.10853455 -22 17 Z " fill="#e23844" transform="translate(102,288)"/>
</svg>
