<?xml version="1.0" encoding="UTF-8"?>
<svg version="1.1" xmlns="http://www.w3.org/2000/svg" width="512" height="512">
<path d="M0 0 C0.74655647 -0.00320648 1.49311293 -0.00641296 2.26229233 -0.0097166 C4.7719197 -0.01803912 7.28130982 -0.01208447 9.79094124 -0.00622082 C11.60518143 -0.00924048 13.41942035 -0.01312902 15.233657 -0.01781338 C20.22556028 -0.02812609 25.217392 -0.02590325 30.20930123 -0.02163279 C35.59045522 -0.01917149 40.97159171 -0.02817231 46.35273933 -0.03567028 C56.89755044 -0.04843599 67.4423361 -0.05020864 77.98715363 -0.04787002 C86.55629549 -0.04608876 95.12542961 -0.04783236 103.69457054 -0.05209446 C104.91303098 -0.05268965 106.13149141 -0.05328484 107.38687489 -0.05389806 C109.86198711 -0.05510978 112.33709932 -0.05632392 114.81221153 -0.05754044 C138.03713958 -0.06842322 161.26205313 -0.06625001 184.486982 -0.06015559 C205.74389245 -0.05498594 227.00075708 -0.06624185 248.25765847 -0.08525381 C270.0727443 -0.10461576 291.88780843 -0.11289109 313.70290291 -0.10913056 C325.95501089 -0.107216 338.20707985 -0.10973087 350.45918083 -0.1238451 C360.88961976 -0.13573896 371.31999569 -0.13718625 381.75043546 -0.12505493 C387.07377883 -0.11915218 392.39700684 -0.11810532 397.72034264 -0.13005733 C402.59213028 -0.14086855 407.46370558 -0.13786971 412.33548309 -0.12379565 C414.09924182 -0.12113555 415.86301693 -0.12355621 417.62675963 -0.13153151 C420.02265007 -0.14161448 422.41779908 -0.13323572 424.81365967 -0.12025452 C425.49975333 -0.12756386 426.18584699 -0.13487321 426.89273137 -0.14240405 C433.13353163 -0.07223032 437.60881511 1.58713385 442.34517097 5.69197559 C445.55856131 9.45623284 446.78107517 12.06212288 446.79273319 17.01909733 C446.80333158 18.46054391 446.80333158 18.46054391 446.81414407 19.93111062 C446.81172899 20.98401308 446.80931391 22.03691554 446.80682564 23.12172413 C446.81206232 24.2424742 446.817299 25.36322427 446.82269436 26.51793647 C446.83774027 30.28724826 446.83840053 34.05642485 446.83906746 37.82576466 C446.84668589 40.5227055 446.85506372 43.21963484 446.86429024 45.91656971 C446.88714174 53.25341227 446.89506108 60.59022591 446.90011668 67.92709923 C446.90337368 72.50891329 446.9098962 77.09071895 446.91711807 81.67252827 C446.9366846 94.36006494 446.95308836 107.04759379 446.95599461 119.73514652 C446.95618218 120.54708664 446.95636975 121.35902675 446.956563 122.19557111 C446.95692925 123.84155257 446.95729295 125.48753404 446.95765411 127.13351551 C446.95783692 127.95057589 446.95801973 128.76763627 446.95820808 129.60945606 C446.95847891 130.83654392 446.95847891 130.83654392 446.9587552 132.08842143 C446.96229647 145.34244807 446.9893156 158.59631218 447.02670597 171.85028246 C447.06479334 185.46032579 447.08415212 199.0702885 447.08445412 212.6803863 C447.08503861 220.32101125 447.09352519 227.96144236 447.12245178 235.6020174 C447.14697155 242.10849185 447.15424474 248.61470178 447.13920426 255.12120995 C447.13203719 258.4399274 447.13560596 261.75769773 447.15561485 265.07642651 C447.17600434 268.67783871 447.16556315 272.27789803 447.14740181 275.87929249 C447.16060178 276.92327206 447.17380175 277.96725163 447.18740171 279.04286695 C447.11172547 285.6130621 445.95543768 290.25091816 441.53267097 295.25447559 C435.01227153 300.45965971 427.51337698 299.72358685 419.53267097 299.50447559 C418.28099129 299.48642872 417.0293116 299.46838184 415.73970222 299.44978809 C412.66988856 299.40292071 409.60168924 299.33731869 406.53267097 299.25447559 C406.55361824 300.03049122 406.57456551 300.80650684 406.59614754 301.60603809 C406.67979857 305.15538307 406.73148727 308.70451994 406.78267097 312.25447559 C406.8161866 313.47521778 406.84970222 314.69595997 406.88423347 315.95369434 C406.96876455 323.77281911 406.79844472 329.86551266 401.16481405 335.66183418 C394.06547915 341.03151826 385.21723579 339.94371085 376.76178169 339.88266468 C374.92844768 339.88771163 373.0951186 339.8949416 371.26180083 339.90416282 C366.23092504 339.92309068 361.2005354 339.91084821 356.16967189 339.89343989 C350.74151727 339.88007196 345.31343405 339.89550089 339.88528633 339.90726185 C329.2546022 339.92564665 318.62410181 339.9171206 307.99342339 339.89917362 C299.35473961 339.88515214 290.71610572 339.88125386 282.07741165 339.8846159 C280.84825624 339.88509334 279.61910083 339.88557078 278.35269829 339.88606269 C275.85576266 339.88708901 273.35882705 339.88814437 270.86189146 339.88922846 C248.11282178 339.89805603 225.36384661 339.87939833 202.61479984 339.84869822 C181.8493516 339.82083452 161.08402046 339.81587581 140.31855965 339.83089161 C116.98454024 339.84766337 93.65058089 339.8516945 70.31655985 339.83418125 C67.82907809 339.83233684 65.34159631 339.83050211 62.85411453 339.82867718 C61.63019446 339.82776509 60.40627439 339.826853 59.14526583 339.82591327 C50.51524983 339.82030433 41.88526343 339.82361836 33.25524902 339.83022213 C22.74067816 339.8379485 12.2262332 339.83122764 1.71168774 339.80604709 C-3.654229 339.79353639 -9.01994956 339.78742468 -14.38587379 339.79858875 C-19.29647293 339.80861271 -24.2066804 339.80021073 -29.11723178 339.77700757 C-30.89502616 339.77183862 -32.67285549 339.77342747 -34.45063473 339.78240222 C-36.86563562 339.79358103 -39.27930849 339.78017924 -41.69422817 339.76063347 C-42.38588167 339.76971229 -43.07753517 339.7787911 -43.79014787 339.78814504 C-49.14383096 339.7035698 -52.13225749 338.17208703 -56.46732903 335.25447559 C-60.25887834 331.16359344 -61.58965281 328.1349533 -61.6015501 322.60731506 C-61.60600795 321.64710833 -61.61046579 320.68690159 -61.61505872 319.69759768 C-61.61487436 318.64041814 -61.61469 317.58323861 -61.61450005 316.49402332 C-61.61817673 315.37271654 -61.62185342 314.25140977 -61.62564152 313.09612399 C-61.63670086 309.31906931 -61.640526 305.54204211 -61.64433098 301.76497364 C-61.6500607 299.06493868 -61.65722747 296.36490786 -61.6642437 293.66487598 C-61.68400559 285.54886522 -61.69407333 277.43285321 -61.70297149 269.31682441 C-61.70735427 265.49568982 -61.71272105 261.67455661 -61.71796036 257.85342312 C-61.73497129 245.15305557 -61.74946628 232.45268889 -61.7567091 219.75231171 C-61.75861901 216.45656489 -61.76053935 213.16081808 -61.76249504 209.8650713 C-61.76297878 209.0459226 -61.76346252 208.22677391 -61.76396092 207.38280252 C-61.77226432 194.10799145 -61.79760705 180.83327039 -61.83007572 167.55849864 C-61.86313164 153.93268335 -61.88115647 140.30691384 -61.88435334 126.68105823 C-61.88651965 119.02932834 -61.89528605 111.37772978 -61.92081451 103.72603893 C-61.9425014 97.21073277 -61.95058187 90.69558984 -61.94084773 84.18025168 C-61.93629719 80.85582154 -61.94040551 77.53200193 -61.95760918 74.20757198 C-61.97521973 70.60338757 -61.96827442 67.00006278 -61.95507622 63.39587879 C-61.97153009 61.82014773 -61.97153009 61.82014773 -61.98831636 60.21258372 C-61.93522145 54.2228269 -61.43172216 50.82970196 -57.46732903 46.25447559 C-52.39182036 41.44609896 -47.32309378 39.98792132 -40.41264153 40.05916309 C-38.7497509 40.06883106 -38.7497509 40.06883106 -37.05326653 40.07869434 C-35.91115715 40.09545216 -34.76904778 40.11220997 -33.59232903 40.12947559 C-31.84436028 40.14301075 -31.84436028 40.14301075 -30.06107903 40.15681934 C-27.19628325 40.18030128 -24.33191368 40.21314418 -21.46732903 40.25447559 C-21.48303947 39.46798634 -21.49874992 38.68149708 -21.51493645 37.87117481 C-21.57748818 34.29068221 -21.61638454 30.71030484 -21.65482903 27.12947559 C-21.67996574 25.89197559 -21.70510246 24.65447559 -21.7310009 23.37947559 C-21.74066887 22.18064747 -21.75033684 20.98181934 -21.76029778 19.74666309 C-21.77600822 18.64693165 -21.79171867 17.5472002 -21.8079052 16.41414356 C-21.24712077 11.21151131 -19.33607437 8.0854494 -15.59232903 4.50447559 C-10.41070496 0.77370627 -6.29963154 -0.04009438 0 0 Z M-4.46732903 17.25447559 C-4.46732903 24.84447559 -4.46732903 32.43447559 -4.46732903 40.25447559 C-2.4399009 40.25686395 -0.41247278 40.2592523 1.67639256 40.26171303 C49.79598715 40.3188621 97.91553808 40.3917888 146.03507977 40.48346188 C151.95688405 40.49473013 157.87868857 40.50586857 163.80049324 40.51692677 C164.97942528 40.51913045 166.15835732 40.52133413 167.37301458 40.52360459 C186.46581351 40.5589836 205.5586124 40.58384434 224.65143197 40.60482261 C244.24026664 40.62657984 263.82905876 40.65962955 283.41785723 40.70317715 C295.50662059 40.72969516 307.59533091 40.74738945 319.68412191 40.75382163 C327.97219082 40.75907504 336.26019297 40.77529048 344.54822611 40.80014125 C349.33102796 40.81415778 354.11371029 40.82332646 358.89653397 40.81948376 C363.27705843 40.816071 367.6573277 40.82645301 372.0377999 40.84771111 C373.62071335 40.85297497 375.20365332 40.85321813 376.78656649 40.84787122 C384.85289655 40.82340398 392.05364165 40.91749011 399.53267097 44.25447559 C403.28849296 48.01029758 405.77673569 51.94619196 405.794384 57.32304478 C405.8018495 58.12870656 405.80931499 58.93436834 405.81700671 59.76444411 C405.81410461 61.0835078 405.81410461 61.0835078 405.81114388 62.42921925 C405.81693628 63.36777044 405.82272868 64.30632163 405.82869661 65.27331376 C405.8457336 68.42559759 405.84857631 71.57773534 405.85151863 74.73006153 C405.86081425 76.98678415 405.87098236 79.24350332 405.88195992 81.50021839 C405.90931527 87.6340761 405.92442574 93.76791077 405.93738794 99.90181351 C405.95299427 106.30937252 405.97979243 112.71688432 406.00541878 119.12440968 C406.04692648 129.8814576 406.08150828 140.63850224 406.11079597 151.39558887 C406.14098117 162.47536033 406.17533129 173.55510597 406.21528816 184.63484669 C406.21898049 185.65930333 406.21898049 185.65930333 406.2227474 186.70445606 C406.235122 190.13072609 406.24757853 193.55699582 406.26007581 196.9832654 C406.3636449 225.40696602 406.45270034 253.83069946 406.53267097 282.25447559 C410.34515523 282.28334795 414.15761167 282.30123051 417.97017097 282.31697559 C419.6030909 282.32954395 419.6030909 282.32954395 421.2689991 282.34236622 C422.82070808 282.3472002 422.82070808 282.3472002 424.40376472 282.35213184 C425.36210213 282.35736866 426.32043953 282.36260548 427.30781746 282.36800098 C429.50552437 282.5050069 429.50552437 282.5050069 430.53267097 281.25447559 C430.63008653 279.85416229 430.65822525 278.44896093 430.65851212 277.04526329 C430.66111986 276.131856 430.66372761 275.21844871 430.66641438 274.27736241 C430.66418366 273.26221103 430.66195294 272.24705966 430.65965462 271.20114613 C430.6619946 269.59714511 430.6619946 269.59714511 430.66438186 267.96074003 C430.66839694 264.34778209 430.66520025 260.73486555 430.66206551 257.12190723 C430.66341933 254.54375655 430.66519915 251.96560606 430.66737556 249.38745594 C430.67183402 243.09365276 430.67085642 236.79986147 430.66796292 230.50605781 C430.66570898 225.39263408 430.66539633 220.27921369 430.66648674 215.1657896 C430.66663997 214.4393579 430.66679321 213.71292619 430.66695108 212.96448139 C430.66727079 211.48896039 430.66759501 210.01343938 430.66792367 208.53791838 C430.67077874 194.68506282 430.66749114 180.83221386 430.66212331 166.97935938 C430.65765619 155.08253608 430.65843039 143.18572254 430.66304207 131.28889942 C430.66838899 117.48880348 430.67050305 103.68871334 430.6674298 89.8886165 C430.66711124 88.41807012 430.66679687 86.94752373 430.66648674 85.47697735 C430.66633246 84.75335687 430.66617819 84.02973639 430.66601924 83.28418802 C430.66515437 78.17502468 430.66661634 73.06586501 430.66896629 67.95670223 C430.6720576 61.08431987 430.66986864 54.2119563 430.66407204 47.33957577 C430.66274458 44.8103129 430.66313831 42.28104849 430.6653347 39.75178623 C430.66804679 36.3127657 430.66466429 32.87380535 430.65965462 29.4347887 C430.6630007 27.91540773 430.6630007 27.91540773 430.66641438 26.36533219 C430.66250276 24.99130963 430.66250276 24.99130963 430.65851212 23.58952904 C430.65834976 22.79493674 430.65818741 22.00034444 430.65802014 21.18167359 C430.65243068 19.17048017 430.65243068 19.17048017 429.53267097 17.25447559 C286.31267097 17.25447559 143.09267097 17.25447559 -4.46732903 17.25447559 Z M-44.46732903 57.25447559 C-45.64052237 59.60086228 -45.59263584 60.97441939 -45.59317017 63.58952904 C-45.59577791 64.50554408 -45.59838566 65.42155912 -45.60107243 66.36533219 C-45.59884171 67.37825284 -45.59661099 68.39117349 -45.59431267 69.4347887 C-45.59587266 70.50568271 -45.59743265 71.57657671 -45.59903991 72.67992204 C-45.60304967 76.29210792 -45.59986035 79.90425225 -45.59672356 83.51643848 C-45.5980776 86.09635919 -45.59985755 88.6762797 -45.60203362 91.25619984 C-45.60648905 97.55019881 -45.60551589 103.84418588 -45.60262097 110.13818533 C-45.60036626 115.251117 -45.60005472 120.36404532 -45.60114479 125.47697735 C-45.60129802 126.20356229 -45.60145126 126.93014723 -45.60160913 127.6787499 C-45.60192884 129.1545951 -45.60225306 130.6304403 -45.60258172 132.1062855 C-45.6054358 145.95720761 -45.60215052 159.80812311 -45.59678136 173.65904414 C-45.59231244 185.55617369 -45.59309011 197.45329348 -45.59770012 209.35042286 C-45.60304553 223.15198138 -45.60516211 236.9535341 -45.60208786 250.75509351 C-45.60176929 252.22532554 -45.60145492 253.69555757 -45.60114479 255.1657896 C-45.60099052 255.88925581 -45.60083624 256.61272201 -45.60067729 257.35811143 C-45.5998121 262.46825712 -45.60127502 267.57839915 -45.60362434 272.68854427 C-45.60671353 279.55929523 -45.6045302 286.43002737 -45.59873009 293.30077648 C-45.59740171 295.83046023 -45.5977979 298.36014553 -45.59999275 300.88982868 C-45.60270121 304.32695593 -45.59932689 307.76402279 -45.59431267 311.20114613 C-45.59654339 312.2162975 -45.59877411 313.23144887 -45.60107243 314.27736241 C-45.59846468 315.1907697 -45.59585694 316.10417699 -45.59317017 317.04526329 C-45.59300781 317.83969324 -45.59284546 318.63412318 -45.59267819 319.45262676 C-45.66383461 321.27674643 -45.66383461 321.27674643 -44.46732903 322.25447559 C-42.16873137 322.3526801 -39.86703679 322.37818626 -37.56634235 322.37752342 C-36.83243433 322.37867727 -36.09852631 322.37983111 -35.34237865 322.38101992 C-32.85181574 322.38369356 -30.36131586 322.37915833 -27.87075615 322.37473011 C-26.07972958 322.37516566 -24.28870307 322.37604027 -22.49767691 322.37731928 C-17.55164517 322.37956743 -12.60563487 322.3755386 -7.65960586 322.37054121 C-2.33510198 322.36624147 2.98940059 322.3676828 8.31390572 322.36844349 C17.54708393 322.36896903 26.78025511 322.36581912 36.01343155 322.36020565 C49.36322096 322.35209468 62.71300695 322.34947585 76.06279855 322.34821766 C97.71950601 322.3460265 119.3762097 322.3393647 141.03291512 322.32991505 C162.07620919 322.32074257 183.11950225 322.31366093 204.16279793 322.30940723 C205.45889129 322.30914451 206.75498464 322.30888179 208.09035356 322.3086111 C214.59216984 322.30730611 221.09398613 322.30604239 227.59580243 322.3047992 C281.57476121 322.29442461 335.55371591 322.27680457 389.53267097 322.25447559 C389.55553639 288.63945896 389.57316871 255.02444425 389.5837363 221.40942157 C389.58498708 217.44509386 389.5862814 213.48076617 389.58760262 209.51643848 C389.58786493 208.72717849 389.58812724 207.93791851 389.5883975 207.12474155 C389.59275438 194.32815888 389.60064203 181.53158069 389.60982377 168.73500068 C389.6191598 155.61442215 389.62472648 142.49384597 389.62675947 129.37326425 C389.6281348 121.27056922 389.63248595 113.16788682 389.64058744 105.06519567 C389.64647493 98.86264946 389.64713007 92.66011298 389.64577866 86.45756435 C389.64605519 83.90530539 389.64806303 81.35304597 389.65187645 78.80078983 C389.65680649 75.3329055 389.65567182 71.8650765 389.65292549 68.39719105 C389.65583833 67.37289354 389.65875117 66.34859603 389.66175228 65.2932592 C389.65976124 64.37165172 389.65777019 63.45004424 389.6557188 62.50050926 C389.65609852 61.69891964 389.65647824 60.89733003 389.65686947 60.07144982 C389.73122929 58.23395419 389.73122929 58.23395419 388.53267097 57.25447559 C386.23928278 57.15627706 383.94279115 57.1307649 381.64730167 57.13142776 C380.91508202 57.13027392 380.18286237 57.12912008 379.42845425 57.12793127 C376.9436347 57.12525764 374.45887831 57.12979285 371.97406197 57.13422108 C370.1871602 57.13378553 368.40025849 57.13291092 366.61335713 57.13163191 C361.67872694 57.12938376 356.74411824 57.13341258 351.8094908 57.13840997 C346.49725697 57.14270972 341.18502446 57.14126839 335.87278938 57.1405077 C326.66089209 57.13998216 317.44900185 57.14313207 308.23710632 57.14874554 C294.918086 57.15685651 281.59906911 57.15947534 268.28004659 57.16073353 C246.67325343 57.16292468 225.06646404 57.16958649 203.45967293 57.17903614 C182.46488145 57.18820862 161.470091 57.19529025 140.47529793 57.19954395 C139.18219157 57.19980668 137.8890852 57.2000694 136.5567938 57.20034008 C130.06996159 57.20164508 123.58312937 57.2029088 117.09629714 57.20415199 C63.24175249 57.21452658 9.38721191 57.23214661 -44.46732903 57.25447559 Z " fill="#e23844" transform="translate(63.467329025268555,86.7455244064331)"/>
<path d="M0 0 C1.07838324 -0.01104769 2.15676647 -0.02209538 3.26782799 -0.03347784 C5.04387633 -0.02111669 5.04387633 -0.02111669 6.85580444 -0.00850582 C8.11413401 -0.01545135 9.37246357 -0.02239688 10.66892433 -0.02955288 C14.16398407 -0.04822272 17.65862134 -0.04186064 21.15369892 -0.03139985 C24.92201267 -0.02442007 28.69023854 -0.04039638 32.45852661 -0.05339718 C39.84150205 -0.07506261 47.22432351 -0.07490388 54.60732031 -0.06677163 C60.60644362 -0.06047739 66.60552195 -0.06160336 72.60464478 -0.06804371 C73.88431639 -0.06939619 73.88431639 -0.06939619 75.18983996 -0.070776 C76.92280691 -0.07262715 78.65577385 -0.07448971 80.38874078 -0.07636356 C96.64714659 -0.09295072 112.90546567 -0.08421486 129.16386628 -0.06737798 C144.04692956 -0.05267836 158.92979102 -0.06731144 173.8128283 -0.09614814 C189.08624392 -0.1255214 204.35956632 -0.1365206 219.63300896 -0.12696594 C221.35967889 -0.12594336 223.08634884 -0.12494875 224.8130188 -0.12398243 C226.08742354 -0.12326784 226.08742354 -0.12326784 227.38757384 -0.12253882 C233.38102786 -0.12037205 239.37439388 -0.13019267 245.36782837 -0.14475346 C252.66969973 -0.16224523 259.97131366 -0.162205 267.27317476 -0.1394018 C271.00034627 -0.12823092 274.72706369 -0.12516063 278.454216 -0.14370251 C282.49047372 -0.16352417 286.52561734 -0.1447873 290.56185913 -0.12203121 C292.33790748 -0.1397848 292.33790748 -0.1397848 294.14983559 -0.15789706 C302.04999444 -0.06689409 302.04999444 -0.06689409 305.42724609 2.87061501 C306.83926513 5.77439016 307.33651404 8.04763434 307.64633179 11.25615788 C308.94559339 20.3065699 312.56640282 26.3429669 319.68539429 32.07256413 C325.42293506 36.13757854 331.1000024 37.0010376 337.93930054 37.68584538 C341.62711078 38.7781446 342.60512205 40.32989208 344.70883179 43.50615788 C345.21498966 46.23139286 345.21498966 46.23139286 345.22349548 49.23687077 C345.23621994 50.38084324 345.2489444 51.52481571 345.26205444 52.70345402 C345.25552856 53.94932285 345.24900269 55.19519169 345.24227905 56.47881413 C345.25089462 57.79799839 345.25951019 59.11718266 345.26838684 60.4763422 C345.29086412 64.08796867 345.28794548 67.69915658 345.27906537 71.3108263 C345.27395115 74.32782458 345.28125144 77.34474076 345.28853744 80.36173058 C345.30553072 87.47928212 345.30197599 94.59661923 345.2852478 101.71416569 C345.26832017 109.05399939 345.28417059 116.39323864 345.31647068 123.73300743 C345.34316842 130.03891141 345.35044235 136.34463036 345.3419556 142.65058517 C345.33702765 146.41508716 345.33923456 150.17923135 345.35974312 153.94368839 C345.3815143 158.14067036 345.36269986 162.33652506 345.3399353 166.53350163 C345.3516275 167.77937046 345.3633197 169.0252393 345.37536621 170.30886173 C345.28251335 178.70315966 345.28251335 178.70315966 342.38520813 182.75859928 C339.04817999 184.93753507 336.40043177 185.4205443 332.45883179 185.94365788 C323.71181147 187.38679402 317.80469427 190.37546328 312.33383179 197.44365788 C309.13236524 202.59231778 308.42585111 208.15001225 307.64242554 214.05303288 C306.44545943 218.48030501 305.44048139 219.79939359 301.70883179 222.50615788 C297.65342696 223.26016156 293.63895168 223.17587694 289.52426147 223.13434696 C287.6487945 223.14498854 287.6487945 223.14498854 285.7354393 223.15584511 C282.26726684 223.17478626 278.79979882 223.16252397 275.33164406 223.14512217 C271.5905954 223.13176079 267.84965068 223.14718079 264.10861206 223.15894413 C256.78087042 223.17733438 249.45339522 223.16879928 242.12566185 223.15085591 C236.17090344 223.13683681 230.21621742 223.13293561 224.26144409 223.13629818 C222.99073488 223.13701434 222.99073488 223.13701434 221.69435477 223.13774497 C219.97346908 223.13877129 218.25258341 223.13982665 216.53169775 223.14091074 C201.31074116 223.1494806 186.0899133 223.13279355 170.86898804 223.1030817 C156.09549553 223.0742436 141.32218847 223.06716038 126.54867554 223.08257389 C110.46575738 223.09933053 94.38292731 223.10337576 78.30000687 223.08586353 C76.58541108 223.08401912 74.87081529 223.08218439 73.15621948 223.08035946 C71.89076062 223.07899132 71.89076062 223.07899132 70.59973693 223.07759555 C64.65134558 223.0719868 58.70299718 223.07530048 52.75460815 223.08190441 C45.50660446 223.08963163 38.25878342 223.0829072 31.01081657 223.05772937 C27.31193448 223.04521997 23.61333693 223.03910501 19.91444397 223.05027103 C15.90716525 223.06213969 11.90063635 223.04308191 7.8934021 223.02082157 C6.72074673 223.02906234 5.54809135 223.03730311 4.33990097 223.04579359 C-3.4838822 222.96522363 -3.4838822 222.96522363 -7.49215698 220.68590546 C-9.98817145 217.66164335 -10.2598645 215.11592309 -10.79116821 211.25615788 C-12.42580199 201.3447013 -16.14039284 195.36223297 -24.29116821 189.50615788 C-29.09820756 186.37599272 -33.78725435 185.88879016 -39.38882446 185.32647038 C-42.3045057 184.5023882 -44.14747309 183.60359632 -46.23800468 181.39188671 C-48.71517517 176.95641996 -47.96815233 171.35752613 -47.92227173 166.42583561 C-47.92741273 165.08184204 -47.93469538 163.73785521 -47.94395447 162.39388371 C-47.96245265 158.7512109 -47.94954147 155.10927099 -47.92986417 151.46662879 C-47.91346622 147.65281604 -47.92229199 143.83904928 -47.92738342 140.0252161 C-47.93190258 133.62201587 -47.91604448 127.21910793 -47.88809204 120.81597233 C-47.85602702 113.41369133 -47.85606158 106.01193707 -47.87330681 98.6096186 C-47.88917042 91.48631495 -47.88244038 84.36320437 -47.8653698 77.23990917 C-47.85849836 74.20925156 -47.85953257 71.17874866 -47.86691475 68.14809322 C-47.8745762 64.57986803 -47.86245719 61.0122424 -47.83506584 57.44411945 C-47.82489518 55.51026893 -47.8343655 53.57634643 -47.84439087 51.64249516 C-47.83166641 50.49148319 -47.81894196 49.34047123 -47.80583191 48.15458012 C-47.80302499 47.15447627 -47.80021807 46.15437243 -47.79732609 45.1239624 C-47.14836738 41.76760436 -45.94805698 40.59579561 -43.29116821 38.50615788 C-40.11929321 37.59990788 -40.11929321 37.59990788 -36.54116821 37.00615788 C-26.45352551 35.0304434 -20.24583206 32.13725308 -14.29116821 23.50615788 C-11.49648685 18.3296458 -10.73248609 12.80411781 -10.01382446 7.02178288 C-8.48739709 1.70816544 -5.29861556 0.00677423 0 0 Z M6.70883179 17.50615788 C5.05883179 21.46615788 3.40883179 25.42615788 1.70883179 29.50615788 C-4.10362776 41.24232021 -13.21796286 47.90467206 -25.29116821 52.50615788 C-26.94116821 53.16615788 -28.59116821 53.82615788 -30.29116821 54.50615788 C-30.29116821 92.12615788 -30.29116821 129.74615788 -30.29116821 168.50615788 C-23.85616821 170.98115788 -23.85616821 170.98115788 -17.29116821 173.50615788 C-3.87095293 181.83594667 1.22324103 190.87791584 6.70883179 205.50615788 C100.42883179 205.50615788 194.14883179 205.50615788 290.70883179 205.50615788 C292.35883179 201.21615788 294.00883179 196.92615788 295.70883179 192.50615788 C303.33436045 179.16148272 313.41387968 173.27114191 327.70883179 168.50615788 C327.70883179 130.88615788 327.70883179 93.26615788 327.70883179 54.50615788 C325.06883179 53.51615788 322.42883179 52.52615788 319.70883179 51.50615788 C307.32770867 46.34583705 299.41379338 38.69940479 293.70883179 26.50615788 C292.71883179 23.53615788 291.72883179 20.56615788 290.70883179 17.50615788 C196.98883179 17.50615788 103.26883179 17.50615788 6.70883179 17.50615788 Z " fill="#e23844" transform="translate(87.29116821289063,165.49384212493896)"/>
<path d="M0 0 C13.55135993 11.55062642 23.00244122 27.6022307 24.61083984 45.52148438 C25.81865302 66.93444987 21.02224563 84.9085081 6.73828125 101.4453125 C-5.98107737 114.8806615 -23.11489143 122.74725769 -41.53833008 123.3359375 C-61.69897869 123.6079422 -79.36653599 117.7754619 -94.11181641 103.77880859 C-107.2878628 90.50403441 -114.72196778 72.59091057 -114.65234375 53.8359375 C-114.12500731 33.08383615 -106.4477602 16.27062971 -91.62109375 1.9375 C-65.99201603 -22.07204674 -26.91086031 -21.17575893 0 0 Z M-82.625 16.70703125 C-86.24711866 20.7544476 -89.00103191 25.19546099 -91.62109375 29.9375 C-92.03359375 30.67871094 -92.44609375 31.41992188 -92.87109375 32.18359375 C-99.00577925 44.47551874 -98.47156448 58.41383421 -94.61328125 71.3046875 C-92.00881483 78.08319945 -88.445063 83.54048905 -83.62109375 88.9375 C-83.07582031 89.56398438 -82.53054687 90.19046875 -81.96875 90.8359375 C-73.41453119 100.05436624 -61.69420529 105.54264005 -49.140625 106.28515625 C-40.92039985 106.54460711 -33.26292742 106.24536086 -25.62109375 102.9375 C-24.43386719 102.47923828 -24.43386719 102.47923828 -23.22265625 102.01171875 C-10.45168066 96.47225773 -0.87445157 85.52342584 4.6875 72.98828125 C9.45022937 59.8536954 9.12945578 44.69600785 3.37890625 31.9375 C-4.51177701 17.56583791 -14.83871448 8.0332486 -30.62109375 2.9375 C-49.65046506 -1.86383411 -68.33024723 3.1466878 -82.625 16.70703125 Z " fill="#e23844" transform="translate(280.62109375,223.0625)"/>
<path d="M0 0 C6.56238361 4.63517758 11.64918878 10.93872359 13.59375 18.83203125 C14.75123917 29.69095029 13.67608342 38.92677248 6.84375 47.64453125 C0.21488167 54.72422942 -7.59104782 57.82585786 -17.21875 58.20703125 C-26.25994659 58.01514568 -33.10370642 54.94534518 -39.65234375 48.75390625 C-46.37458789 41.38788372 -48.89264095 33.52859642 -48.6484375 23.59765625 C-47.91638737 15.23811609 -44.34902211 8.71957314 -38.40625 2.83203125 C-26.71924311 -5.74443381 -12.85410385 -7.3772881 0 0 Z M-29.21875 18.51953125 C-31.09052139 22.16455974 -31.51968626 25.75541575 -31.40625 29.83203125 C-29.81219023 34.52565168 -27.68734703 37.31921343 -23.40625 39.83203125 C-18.93862966 41.03771068 -15.49589934 41.20210084 -11.09375 39.70703125 C-7.61484338 37.2798871 -5.3024574 34.62444605 -3.40625 30.83203125 C-2.83593563 26.15732333 -2.96783249 22.70886627 -5.09375 18.45703125 C-8.00082355 15.15710992 -10.06423162 13.18333401 -14.515625 12.515625 C-20.99469609 12.17862634 -24.47096661 14.0991812 -29.21875 18.51953125 Z " fill="#e23844" transform="translate(378.40625,250.16796875)"/>
<path d="M0 0 C7.42979569 5.34566356 12.87446929 11.89280974 14.71875 21.0078125 C15.95568035 29.76940249 14.43982825 37.92923705 9.3125 45.25 C3.22539554 52.67146973 -4.05589269 57.16423077 -13.62890625 58.31640625 C-22.94102155 58.72704007 -30.75613787 56.22075607 -37.9375 50.25 C-44.72814291 43.70188005 -47.45523287 35.88348497 -48.3125 26.625 C-47.35397923 15.50615911 -42.78468832 7.91952588 -34.3359375 0.76953125 C-24.80559492 -6.44994231 -9.94623795 -6.62431172 0 0 Z M-27 17 C-29.7796278 20.88305581 -31.01904902 23.87610794 -30.9375 28.6875 C-29.47820093 33.84369004 -28.17282523 36.16548974 -23.75 39.3125 C-20.03580558 41.22421772 -17.1930606 41.59900866 -13 41 C-7.6162119 38.8099845 -4.90491652 36.52205665 -2.59765625 31.1484375 C-1.58805044 27.51913558 -1.72676334 24.5416468 -3 21 C-5.24286222 17.24528251 -7.93469195 14.65930941 -12 13 C-18.015745 12.05935624 -22.42656865 12.74564526 -27 17 Z " fill="#e23844" transform="translate(127,250)"/>
</svg>
