<?xml version="1.0" encoding="UTF-8"?>
<svg version="1.1" xmlns="http://www.w3.org/2000/svg" width="512" height="512">
<path d="M0 0 C4.36176758 3.59642637 6.45229786 7.48244973 8.375 12.6875 C8.81162964 13.8463269 8.81162964 13.8463269 9.25708008 15.02856445 C18.14955344 39.46081972 24.0696615 65.93960837 24.203125 92.01171875 C24.21018463 92.93436523 24.21724426 93.85701172 24.22451782 94.80761719 C24.45071542 133.04023383 24.45071542 133.04023383 21 150 C20.80664062 150.99805664 20.61328125 151.99611328 20.4140625 153.02441406 C12.52978844 192.92030084 -3.98141514 231.50381833 -30 263 C-30.42458496 263.51933105 -30.84916992 264.03866211 -31.28662109 264.57373047 C-40.70781197 276.07379205 -50.51576108 287.51486934 -62 297 C-62.88171875 297.78117187 -63.7634375 298.56234375 -64.671875 299.3671875 C-79.34265602 312.30085988 -95.59129119 323.12326417 -113 332 C-113.81549316 332.41733398 -114.63098633 332.83466797 -115.47119141 333.26464844 C-148.86968082 350.17187378 -185.45790624 360.0920419 -223 361 C-223.66628418 361.02046387 -224.33256836 361.04092773 -225.01904297 361.06201172 C-278.14849291 362.55531333 -329.9269585 347.09186309 -374.21020508 318.01879883 C-375.9464478 316.83510146 -375.9464478 316.83510146 -378 317 C-379.38320872 318.52874447 -379.38320872 318.52874447 -380.7578125 320.55078125 C-381.29712402 321.30738037 -381.83643555 322.06397949 -382.39208984 322.84350586 C-382.9639502 323.65827393 -383.53581055 324.47304199 -384.125 325.3125 C-385.00406006 326.54141968 -385.00406006 326.54141968 -385.90087891 327.79516602 C-388.44013573 331.34851535 -390.95614956 334.91302043 -393.390625 338.5390625 C-399.57506182 347.57223596 -399.57506182 347.57223596 -406 349 C-409.96833496 349 -411.57013727 348.32239705 -414.75 345.9375 C-420.11082571 338.93864422 -420.31452769 328.10059588 -421.8203125 319.546875 C-422.0161474 318.43847637 -422.0161474 318.43847637 -422.21593857 317.30768585 C-422.90655867 313.3975959 -423.59364769 309.48690459 -424.27783203 305.57568359 C-424.97943715 301.56898897 -425.69319727 297.56456182 -426.40980721 293.5605278 C-426.96403149 290.45074586 -427.50904357 287.33939774 -428.05169296 284.22757721 C-428.31061065 282.75202867 -428.57288005 281.27706366 -428.83877945 279.80275726 C-432.90580116 257.19900879 -432.90580116 257.19900879 -429.93162537 252.20666504 C-426.3033819 248.77577985 -421.87431709 248.00395153 -417.10546875 247.453125 C-416.29981979 247.34301086 -415.49417084 247.23289673 -414.66410828 247.1194458 C-412.82247942 246.87030595 -410.97954663 246.63068939 -409.13568115 246.39868164 C-405.67746067 245.9589912 -402.22502731 245.48440111 -398.77197266 245.00585938 C-392.71906534 244.17169521 -386.66337445 243.36284571 -380.60453987 242.5729599 C-376.37641742 242.0217275 -372.14978831 241.46054735 -367.92400837 240.89164352 C-365.16836438 240.52292525 -362.41160365 240.16315846 -359.65447044 239.80576324 C-357.72609217 239.55345759 -355.79897182 239.29159561 -353.87190247 239.02947998 C-347.6792529 238.2389166 -342.12392648 237.60932004 -336 239 C-332.27551527 242.1813307 -331.10754387 243.92675607 -330.6171875 248.8203125 C-330.74669059 253.30410011 -332.36732224 255.75234688 -335.125 259.3125 C-335.56513428 259.89443115 -336.00526855 260.4763623 -336.45874023 261.07592773 C-337.4302921 262.36013992 -338.40943922 263.63863169 -339.39501953 264.91210938 C-342.34525507 268.75001846 -345.19486619 272.66273514 -348.0625 276.5625 C-348.65708008 277.3663916 -349.25166016 278.1702832 -349.86425781 278.99853516 C-354.71857762 285.57125743 -359.41174014 292.23899275 -364 299 C-363.29617188 299.25523437 -362.59234375 299.51046875 -361.8671875 299.7734375 C-358.71685415 301.12112779 -356.01258851 302.78076408 -353.125 304.625 C-305.55475373 334.24497446 -244.29527325 346.74802056 -189 335 C-188.01370605 334.79600586 -187.02741211 334.59201172 -186.01123047 334.38183594 C-132.46908385 323.05513702 -81.47439081 294.0070201 -48 250 C-47.58862793 249.47035645 -47.17725586 248.94071289 -46.75341797 248.39501953 C-20.78609293 214.87670763 -4.16966763 175.09247727 1 133 C1.0942627 132.29335205 1.18852539 131.5867041 1.28564453 130.85864258 C5.79906437 92.89020468 0.12523424 53.33809497 -13.84228516 17.8605957 C-15.73759087 13.02573411 -16.53117123 10.0720047 -15 5 C-10.36967154 -0.60513445 -7.06734344 -1.70591049 0 0 Z M-379.58203125 264.09375 C-380.39621017 264.20473022 -381.2103891 264.31571045 -382.04924011 264.43005371 C-384.63743283 264.7835772 -387.22496163 265.14172176 -389.8125 265.5 C-391.57222376 265.7411911 -393.33198897 265.98207989 -395.09179688 266.22265625 C-399.3950194 266.81160354 -403.69765262 267.4046947 -408 268 C-407.43478233 276.97607143 -406.16361159 285.71670859 -404.5625 294.5625 C-404.34529297 295.81869141 -404.12808594 297.07488281 -403.90429688 298.36914062 C-403.68966797 299.56861328 -403.47503906 300.76808594 -403.25390625 302.00390625 C-403.06127197 303.08486572 -402.8686377 304.1658252 -402.67016602 305.27954102 C-402.11528882 308.19494352 -402.11528882 308.19494352 -400 311 C-399.64921387 310.52393311 -399.29842773 310.04786621 -398.93701172 309.55737305 C-398.43959473 308.88230713 -397.94217773 308.20724121 -397.4296875 307.51171875 C-396.86958984 306.75157471 -396.30949219 305.99143066 -395.73242188 305.20825195 C-394.48116409 303.51013988 -393.2298611 301.81206113 -391.97851562 300.11401367 C-388.70598587 295.67313194 -385.43415543 291.23173899 -382.1640625 286.7890625 C-381.54934082 285.95415283 -380.93461914 285.11924316 -380.30126953 284.2590332 C-379.13269196 282.6718394 -377.96438156 281.08444885 -376.79638672 279.49682617 C-376.2551416 278.76181885 -375.71389648 278.02681152 -375.15625 277.26953125 C-374.63675781 276.5626416 -374.11726563 275.85575195 -373.58203125 275.12744141 C-372.48818035 273.65648203 -371.38043827 272.19578799 -370.26171875 270.74365234 C-369.71128906 270.02773926 -369.16085937 269.31182617 -368.59375 268.57421875 C-368.09552734 267.93444092 -367.59730469 267.29466309 -367.08398438 266.63549805 C-365.81584717 265.04917154 -365.81584717 265.04917154 -366 263 C-370.59385686 262.84007461 -375.04502325 263.46044721 -379.58203125 264.09375 Z " fill="#e23844" transform="translate(488,150)"/>
<path d="M0 0 C0.92003815 0.00182281 1.84007629 0.00364563 2.78799438 0.00552368 C16.83701608 0.05228521 30.48474475 0.65761356 44.3125 3.3125 C45.19647461 3.4681543 46.08044922 3.62380859 46.99121094 3.78417969 C82.45132366 10.09071731 115.42285014 24.38606676 145.3125 44.3125 C147.48224383 41.5440642 149.64819524 38.7726899 151.8125 36 C152.4523584 35.18072021 153.0922168 34.36144043 153.75146484 33.51733398 C157.86583673 28.22928777 161.85207187 22.88990629 165.6640625 17.37890625 C167.85453698 14.6330271 169.77333194 12.59207545 173.3125 11.94921875 C180.64045748 12.13528017 180.64045748 12.13528017 183.3125 14.3125 C185.81895836 18.68038999 186.97033556 22.65446112 187.84643555 27.59619141 C187.97367004 28.29955627 188.10090454 29.00292114 188.23199463 29.7276001 C188.64724576 32.03817548 189.04871521 34.35088881 189.44921875 36.6640625 C189.73586686 38.28593111 190.02305137 39.907705 190.31074524 41.52938843 C190.91102904 44.92592885 191.50441628 48.32358421 192.09301758 51.72216797 C192.84284351 56.0481024 193.61021193 60.37070109 194.38296795 64.69259071 C194.97977134 68.04247707 195.56675084 71.39403037 196.15094948 74.74613571 C196.42976063 76.33884511 196.71158597 77.93103024 196.99664879 79.5226326 C201.25096704 103.36300638 201.25096704 103.36300638 197.24023438 109.46557617 C193.84685087 111.6062488 191.44060827 112.27615275 187.46875 112.86328125 C186.7519104 112.97360184 186.0350708 113.08392242 185.29650879 113.19758606 C182.63833425 113.59547806 179.97639393 113.95489664 177.3125 114.3125 C176.19601074 114.46748962 175.07952148 114.62247925 173.92919922 114.78216553 C165.97006788 115.88540752 158.0050154 116.93453926 150.03515625 117.95678711 C146.49663215 118.41074115 142.9593322 118.87357968 139.4222641 119.33872509 C136.66193703 119.70049827 133.90093908 120.05692801 131.13972473 120.41185951 C129.20904997 120.66115114 127.27901322 120.91536838 125.34899902 121.16972351 C108.61710821 123.29318434 108.61710821 123.29318434 103.375 121.0625 C100.13337715 118.31203213 99.51310771 116.40469753 98.75 112.25 C100.5140398 99.9017214 113.60343292 87.62631171 121.09130859 78.03369141 C122.7991374 75.84182808 124.49409694 73.64051652 126.1875 71.4375 C126.71754639 70.76565674 127.24759277 70.09381348 127.79370117 69.40161133 C129.04665577 67.76345714 130.19105247 66.04333789 131.3125 64.3125 C130.15817071 60.84951214 129.58361325 60.56649955 126.578125 58.74609375 C125.78720459 58.26551514 124.99628418 57.78493652 124.18139648 57.28979492 C123.31716064 56.7816626 122.4529248 56.27353027 121.5625 55.75 C120.66797119 55.22059814 119.77344238 54.69119629 118.85180664 54.14575195 C90.47001435 37.62825635 59.91558082 27.33529354 27.3125 23.3125 C26.5891748 23.2182373 25.86584961 23.12397461 25.12060547 23.02685547 C-36.1686897 15.87579807 -97.25625401 35.48187808 -145.734375 72.6484375 C-194.31110838 111.53790324 -224.35336262 166.80088373 -232.6875 228.3125 C-232.790625 228.99505859 -232.89375 229.67761719 -233 230.38085938 C-234.0989872 238.50551475 -233.93148024 246.75378877 -233.9375 254.9375 C-233.93817474 255.76130157 -233.93884949 256.58510315 -233.93954468 257.43386841 C-233.92202862 270.9279413 -233.2245357 284.02802172 -230.6875 297.3125 C-230.52121094 298.20324219 -230.35492188 299.09398437 -230.18359375 300.01171875 C-227.86929587 312.02892479 -224.50240926 323.56221011 -220.4543457 335.10717773 C-215.23138586 350.03192932 -215.23138586 350.03192932 -216.25 355.125 C-218.14524474 358.00906808 -219.69090438 359.55362866 -222.6875 361.3125 C-226.89987453 362.15668032 -229.60707825 362.01362476 -233.2578125 359.64453125 C-251.65957443 341.98238998 -255.43791895 295.40565627 -255.9513092 271.33197021 C-256.01468335 266.47096645 -256.01843145 261.61131976 -256 256.75 C-255.99676727 255.21939438 -255.99676727 255.21939438 -255.99346924 253.65786743 C-255.94383352 239.03039476 -255.69669712 224.67986162 -252.6875 210.3125 C-252.48882324 209.33764648 -252.29014648 208.36279297 -252.08544922 207.35839844 C-241.78510703 158.11736186 -219.39005677 114.74857949 -184.6875 78.3125 C-184.11725098 77.71356934 -183.54700195 77.11463867 -182.95947266 76.49755859 C-174.95649888 68.15439922 -166.73770159 60.50904813 -157.44677734 53.62304688 C-155.66337587 52.29452909 -153.90340484 50.93889963 -152.14453125 49.578125 C-137.83376891 38.63687387 -122.00506048 29.89072187 -105.6875 22.3125 C-104.62208984 21.8160498 -104.62208984 21.8160498 -103.53515625 21.30957031 C-86.47786387 13.47790488 -68.63748975 8.42181705 -50.3125 4.5 C-49.41184814 4.30510986 -48.51119629 4.11021973 -47.58325195 3.90942383 C-31.81231434 0.71125979 -16.05229331 -0.06637162 0 0 Z M168.3125 50.3125 C160.11387777 60.83469489 152.19744722 71.55424337 144.3125 82.3125 C143.19931158 83.8294952 142.0860336 85.3464247 140.97265625 86.86328125 C138.41757577 90.3451143 135.86441905 93.8283493 133.3125 97.3125 C136.61693735 98.96471868 140.15821618 97.83979241 143.71484375 97.3515625 C144.54834854 97.241539 145.38185333 97.1315155 146.24061584 97.01815796 C148.00544742 96.78391779 149.76988082 96.54666117 151.53393555 96.30664062 C154.23462595 95.93958949 156.93646919 95.58229052 159.63867188 95.2265625 C161.35163947 94.99797187 163.06453277 94.76882365 164.77734375 94.5390625 C165.99151222 94.3780455 165.99151222 94.3780455 167.23020935 94.21377563 C170.37853775 93.78269129 173.29035221 93.3198826 176.3125 92.3125 C175.68977955 83.52928517 174.37063536 74.92294091 172.875 66.25 C172.6554084 64.91995332 172.43600627 63.58987535 172.21679688 62.25976562 C171.89485352 60.3812793 171.89485352 60.3812793 171.56640625 58.46484375 C171.37377197 57.33038818 171.1811377 56.19593262 170.98266602 55.02709961 C170.52903781 52.18435938 170.52903781 52.18435938 168.3125 50.3125 Z " fill="#e23844" transform="translate(255.6875,1.6875)"/>
<path d="M0 0 C1.25620148 -0.00860046 2.51240295 -0.01720093 3.80667114 -0.02606201 C5.20666463 -0.03049739 6.60665855 -0.03479574 8.00665283 -0.03897095 C9.47502843 -0.04687105 10.94340208 -0.05513994 12.41177368 -0.06375122 C17.24188377 -0.08998373 22.07200259 -0.10528084 26.90216064 -0.11953735 C28.56434383 -0.12489668 30.22652695 -0.13027418 31.88871002 -0.13566971 C38.80292891 -0.15730093 45.71714545 -0.17603761 52.63138962 -0.1872921 C62.54277703 -0.20353066 72.45377235 -0.23670311 82.36501193 -0.29369295 C89.33239205 -0.33239029 96.2996673 -0.35192457 103.26715207 -0.35721266 C107.42916196 -0.36086667 111.59075379 -0.37289237 115.7526474 -0.4053154 C119.66962828 -0.4353925 123.58593808 -0.44170956 127.5030098 -0.42993164 C128.93891781 -0.42971087 130.37485692 -0.43801947 131.8106575 -0.45558548 C144.00957507 -0.59667966 144.00957507 -0.59667966 147.94396973 2.56536865 C151.31098935 6.59792875 151.46158438 8.89849379 151.10528564 14.15390015 C149.40497098 17.97960815 147.95841978 19.62308781 144.10528564 21.15390015 C141.61218262 21.43237305 141.61218262 21.43237305 138.78594971 21.4727478 C137.19475311 21.50255234 137.19475311 21.50255234 135.57141113 21.53295898 C133.86341339 21.5502858 133.86341339 21.5502858 132.12091064 21.56796265 C130.95018005 21.5873288 129.77944946 21.60669495 128.57324219 21.62664795 C124.83399745 21.68642722 121.09472191 21.73282315 117.35528564 21.77890015 C114.82011597 21.81708139 112.28495924 21.8561332 109.74981689 21.89608765 C103.53508811 21.99212751 97.32028133 22.07718006 91.10528564 22.15390015 C91.65718063 22.83258652 92.20907562 23.51127289 92.7776947 24.21052551 C93.50027969 25.10505936 94.22286469 25.9995932 94.96734619 26.92123413 C95.68424118 27.8061705 96.40113617 28.69110687 97.13975525 29.6028595 C103.9768229 38.47661568 109.20576616 49.90008233 109.10528564 61.15390015 C110.61095093 61.13033447 110.61095093 61.13033447 112.14703369 61.10629272 C115.88360519 61.05184901 119.62014185 61.01749789 123.35699463 60.98910522 C124.97196353 60.97405139 126.58689178 60.95360367 128.20172119 60.92758179 C130.5277512 60.89104728 132.85323905 60.87414 135.17950439 60.8609314 C136.2563575 60.83770561 136.2563575 60.83770561 137.35496521 60.81401062 C142.85010448 60.81218038 146.00441188 62.1254703 149.91778564 65.90390015 C151.6339689 69.15561579 151.48690653 71.52850177 151.10528564 75.15390015 C149.45389259 78.69259955 148.38923335 79.96460168 145.10528564 82.15390015 C142.42524363 82.39437661 139.83974361 82.52663512 137.15606689 82.56796265 C136.38345016 82.5873288 135.61083344 82.60669495 134.81480408 82.62664795 C132.34924325 82.68638494 129.88363558 82.73280501 127.41778564 82.77890015 C125.74523934 82.8170854 124.07271259 82.85613745 122.40020752 82.89608765 C118.30205917 82.99208148 114.20381876 83.07613392 110.10528564 83.15390015 C109.72545532 84.6541272 109.72545532 84.6541272 109.33795166 86.18466187 C108.99116298 87.52604751 108.64405949 88.8673518 108.29669189 90.20858765 C108.13157104 90.86431763 107.9664502 91.52004761 107.79632568 92.19564819 C103.14175577 110.03358671 91.67039693 124.46241576 76.10528564 134.15390015 C62.97546769 141.30847161 49.96645217 144.02992208 35.16778564 144.71640015 C33.85584229 144.78117554 33.85584229 144.78117554 32.51739502 144.84725952 C30.38016569 144.95236916 28.24274326 145.05354 26.10528564 145.15390015 C26.73189087 145.73506592 26.73189087 145.73506592 27.37115479 146.32797241 C29.30465217 148.12273396 31.23622364 149.91955595 33.16778564 151.71640015 C33.82456299 152.32548218 34.48134033 152.93456421 35.15802002 153.56210327 C39.04844987 157.18422762 42.84528197 160.87791151 46.58892822 164.6512146 C48.29744364 166.3443256 50.07395377 167.92224298 51.91778564 169.46640015 C55.1286232 172.23008044 58.1279573 175.14009611 61.10528564 178.15390015 C64.02155167 181.1057304 66.95134399 183.95778873 70.10528564 186.65390015 C74.18151783 190.13842121 77.90079437 193.93471996 81.66778564 197.74765015 C84.35683434 200.40222386 87.16807355 202.85300981 90.03887939 205.3062439 C93.40580288 208.31674448 96.52847434 211.56820952 99.69903564 214.7828064 C101.79028092 216.84349776 103.91905759 218.76920798 106.16778564 220.65390015 C109.9519551 223.8744699 109.9519551 223.8744699 110.34356689 227.1421814 C110.47659315 231.30800347 110.49360233 233.53259346 108.23028564 237.15390015 C104.86702587 240.31932111 102.16950868 240.82462661 97.63653564 240.72421265 C92.88426473 239.65348494 90.03681035 236.15091044 86.71612549 232.76425171 C84.10421065 230.1531286 81.38551697 227.65735504 78.68341064 225.14022827 C73.82933604 220.61673289 68.99933899 216.07757086 64.32403564 211.3687439 C62.05705934 209.08595973 59.76102212 206.90847855 57.29278564 204.84140015 C54.08194809 202.07771985 51.08261399 199.16770418 48.10528564 196.15390015 C45.18901961 193.2020699 42.2592273 190.35001156 39.10528564 187.65390015 C35.02905345 184.16937908 31.30977691 180.37308033 27.54278564 176.56015015 C25.45527929 174.4994067 23.33359342 172.55874389 21.10528564 170.65390015 C17.95134399 167.95778873 15.02155167 165.1057304 12.10528564 162.15390015 C9.20936607 159.22271823 6.30285993 156.3898684 3.16778564 153.71640015 C-0.31459058 150.7335451 -3.58538842 147.57563945 -6.83221436 144.34140015 C-7.31746582 143.8606604 -7.80271729 143.37992065 -8.30267334 142.88461304 C-11.42168086 139.75225979 -12.80627098 138.32577481 -13.14471436 133.84140015 C-12.87937036 129.92757621 -12.26151524 128.22197536 -9.89471436 125.15390015 C-6.74241283 123.0523658 -5.98495269 122.90187301 -2.38592529 122.88265991 C-1.0173941 122.86737999 -1.0173941 122.86737999 0.37878418 122.85179138 C1.36618591 122.84965134 2.35358765 122.84751129 3.37091064 122.8453064 C5.48028796 122.82010895 7.5896629 122.79471158 9.69903564 122.76913452 C13.0095739 122.74062061 16.32006973 122.71660227 19.63067627 122.69760132 C40.75879776 122.55273551 58.65268294 121.95124747 74.81622314 106.6343689 C80.12339235 100.88342615 83.57343299 94.78840282 86.20343018 87.45614624 C86.56051056 86.46375946 86.91759094 85.47137268 87.28549194 84.44891357 C87.55602386 83.69155914 87.82655579 82.93420471 88.10528564 82.15390015 C86.92622147 82.16278259 85.74715729 82.17166504 84.53236389 82.18081665 C73.42328576 82.26188729 62.31426761 82.32185836 51.20496082 82.36114883 C45.49346911 82.38202754 39.78221613 82.41035081 34.07086182 82.45565796 C28.55953816 82.49910492 23.0484442 82.52303512 17.53696251 82.53340912 C15.43378775 82.5408025 13.33062563 82.55523996 11.2275486 82.57682037 C8.28262751 82.60583864 5.33865667 82.60985675 2.39361572 82.60800171 C1.52327194 82.62238281 0.65292816 82.63676392 -0.24378967 82.65158081 C-4.28835989 82.62399558 -6.38656068 82.46385516 -9.91273499 80.3130188 C-12.47817503 77.51829271 -12.84552648 75.58839301 -13.26971436 71.84140015 C-12.77009 66.92842735 -11.38710182 65.5650693 -7.89471436 62.15390015 C-3.96688576 60.84462395 -0.20512624 60.97633138 3.89117432 60.94857788 C4.78894089 60.93867828 5.68670746 60.92877869 6.61167908 60.9185791 C9.58217726 60.88696558 12.55269144 60.8622072 15.52325439 60.8374939 C17.58163369 60.81692425 19.64000876 60.79592777 21.69837952 60.77452087 C27.11854636 60.71930136 32.53875132 60.66989151 37.95898438 60.62167358 C43.4889058 60.57145771 49.01877181 60.51577209 54.54864502 60.46054077 C65.40081123 60.35296066 76.25302554 60.25151531 87.10528564 60.15390015 C86.50186873 58.41614272 85.89102468 56.68096341 85.27716064 54.9468689 C84.93781494 53.98031372 84.59846924 53.01375854 84.24884033 52.01791382 C80.03915894 41.47483688 71.34698608 32.08117871 61.10528564 27.15390015 C51.25848303 23.30871073 42.4762163 22.01774377 31.97637939 21.94296265 C29.78561651 21.91491026 27.59486138 21.88624593 25.40411377 21.85702515 C21.96539395 21.81568669 18.52682179 21.77877831 15.08795166 21.75253296 C11.75879436 21.72495048 8.43028672 21.67910068 5.10137939 21.63046265 C4.07419296 21.62720978 3.04700653 21.62395691 1.98869324 21.62060547 C-6.9204512 21.46706631 -6.9204512 21.46706631 -10.89471436 18.15390015 C-13.46661115 14.72470442 -13.39685635 11.31450528 -12.89471436 7.15390015 C-9.46993837 1.45018401 -6.44048864 0.03272945 0 0 Z " fill="#e23844" transform="translate(186.89471435546875,135.84609985351563)"/>
</svg>
