<?xml version="1.0" encoding="UTF-8"?>
<svg version="1.1" xmlns="http://www.w3.org/2000/svg" width="512" height="512">
<path d="M0 0 C0.66 0.33 1.32 0.66 2 1 C3.71823426 0.27746046 5.40143108 -0.52927996 7.0625 -1.375 C16.30416921 -5.68377824 24.14850589 -5.59452648 34 -3 C40.6167607 -0.52453116 45.33790769 2.72447449 50 8 C50.78375 7.731875 51.5675 7.46375 52.375 7.1875 C53.57125 6.795625 54.7675 6.40375 56 6 C56.70382812 5.73574219 57.40765625 5.47148437 58.1328125 5.19921875 C69.77047723 1.14716057 81.78757474 1.98539775 93 7 C100.92649853 11.59330428 108.09104545 17.27313636 111.0625 26.1875 C110.98274539 29.77645748 110.12143038 31.10359812 108 34 C105.79151144 35.67856588 103.6537401 37.16251275 101.3125 38.625 C99.95232905 39.50267396 98.59298067 40.38162375 97.234375 41.26171875 C96.53376953 41.71208496 95.83316406 42.16245117 95.11132812 42.62646484 C91.71823231 44.83386043 88.39094644 47.13423313 85.0625 49.4375 C83.72008885 50.36333456 82.37764074 51.28911554 81.03515625 52.21484375 C80.36887207 52.67487793 79.70258789 53.13491211 79.01611328 53.60888672 C75.68051444 55.91044184 72.34002759 58.204879 69 60.5 C67.66664292 61.41663212 66.33330959 62.3332988 65 63.25 C62.33333333 65.08333333 59.66666667 66.91666667 57 68.75 C56.3402417 69.20358887 55.6804834 69.65717773 55.00073242 70.12451172 C53.66497667 71.04283361 52.32920188 71.9611278 50.9934082 72.87939453 C47.69698255 75.14551157 44.40086973 77.41208059 41.10546875 79.6796875 C33.10329267 85.18518464 25.09145005 90.67634388 17.07373047 96.15917969 C9.37332341 101.42615184 1.68541947 106.71119245 -6 112 C-14.70202178 117.98839383 -23.40875651 123.9698184 -32.125 129.9375 C-32.9188208 130.48132324 -33.7126416 131.02514648 -34.53051758 131.58544922 C-36.02381932 132.60730769 -37.51901525 133.62640522 -39.01635742 134.64233398 C-40.69285231 135.78977867 -42.34716275 136.96953564 -43.99609375 138.15625 C-47.82219277 140.50464888 -51.72975138 142.03147127 -55.9375 143.5625 C-56.69095703 143.85318359 -57.44441406 144.14386719 -58.22070312 144.44335938 C-91.28409263 156.62747735 -125.57786646 148.20837599 -158.82000732 141.6272583 C-166.88567497 140.03629332 -174.96085615 138.49531053 -183.03869629 136.9675293 C-185.73105748 136.45306236 -188.41973927 135.92209904 -191.10839844 135.38867188 C-205.52905298 132.58286877 -217.02218115 130.92585212 -230 139 C-230.80679199 139.49935059 -231.61358398 139.99870117 -232.44482422 140.51318359 C-238.12446568 144.05002795 -243.75667494 147.65708254 -249.37109375 151.29638672 C-252.4173221 153.27043774 -255.47199584 155.2310575 -258.52783203 157.19018555 C-261.02114027 158.78944868 -263.51080622 160.39434258 -266 162 C-264.32657232 168.41006429 -262.48545301 174.75670514 -260.51953125 181.08203125 C-260.30029999 181.79044159 -260.08106873 182.49885193 -259.85519409 183.22872925 C-258.94411543 186.17149972 -258.03230599 189.11394788 -257.10766602 192.05249023 C-256.42472831 194.22668739 -255.7525444 196.40397536 -255.08203125 198.58203125 C-254.76804131 199.56657036 -254.76804131 199.56657036 -254.44770813 200.57099915 C-253.25252037 204.49000329 -252.53383877 207.91060866 -253 212 C-254.22807312 214.14282322 -254.22807312 214.14282322 -256 216 C-258.1411438 216.50057125 -258.1411438 216.50057125 -260.66845703 216.50120544 C-261.62745911 216.51103958 -262.58646118 216.52087372 -263.57452393 216.53100586 C-265.15025177 216.51650391 -265.15025177 216.51650391 -266.7578125 216.50170898 C-267.86533875 216.50711197 -268.97286499 216.51251495 -270.11395264 216.51808167 C-273.78457139 216.53061598 -277.45441302 216.51404583 -281.125 216.49609375 C-283.66943401 216.49624863 -286.21386827 216.49773573 -288.75830078 216.50050354 C-294.09484151 216.50188965 -299.43110658 216.48972602 -304.76757812 216.46655273 C-310.93828223 216.43994242 -317.10861037 216.43819556 -323.27935219 216.4499411 C-329.21408555 216.46071846 -335.1487041 216.45443169 -341.08343506 216.44038582 C-343.60967614 216.4358604 -346.1359283 216.43554398 -348.66217041 216.43945122 C-352.18907563 216.44235235 -355.71536053 216.4259082 -359.2421875 216.40405273 C-360.81791534 216.41080521 -360.81791534 216.41080521 -362.42547607 216.41769409 C-363.38447815 216.40778946 -364.34348022 216.39788483 -365.33154297 216.38768005 C-366.16555634 216.38525016 -366.9995697 216.38282026 -367.8588562 216.38031673 C-370.54916089 215.9024563 -371.39195645 215.18631765 -373 213 C-375.97609243 204.47677963 -376.15676282 194.46686543 -377.24658203 185.51586914 C-377.46331612 183.75882747 -377.68036577 182.0018247 -377.89770508 180.24485779 C-378.48389276 175.49737599 -379.06519626 170.74930862 -379.64522791 166.00107121 C-380.13101251 162.02738935 -380.618995 158.05397854 -381.106902 154.08055681 C-382.25831577 144.70266389 -383.4055387 135.32426461 -384.55029297 125.94555664 C-385.72887677 116.29041505 -386.91518698 106.63624449 -388.10519516 96.9825049 C-389.12910394 88.67365194 -390.14786506 80.36417841 -391.16261566 72.05420202 C-391.76766067 67.09997142 -392.37468979 62.14600471 -392.98682022 57.19264412 C-393.56237458 52.53364072 -394.13147577 47.87389251 -394.695755 43.21351051 C-394.90307721 41.51014131 -395.11262899 39.80704165 -395.32465744 38.10425186 C-398.34635077 13.80645373 -398.34635077 13.80645373 -395.68645573 10.23756409 C-392.92958378 8.21450136 -389.8523841 8.57515679 -386.56274414 8.59594727 C-385.43055702 8.58565239 -385.43055702 8.58565239 -384.27549744 8.57514954 C-381.77852609 8.55683674 -379.2821804 8.56072535 -376.78515625 8.56640625 C-375.0502451 8.56184643 -373.31533577 8.55654145 -371.58042908 8.55052185 C-367.94294908 8.54158185 -364.30568852 8.54402373 -360.66821289 8.55395508 C-356.00615636 8.56544323 -351.34485741 8.54524053 -346.68290043 8.51603794 C-343.09951462 8.49769313 -339.51631091 8.49796498 -335.93288994 8.50367546 C-334.21408463 8.5038289 -332.49526715 8.49776574 -330.77650642 8.48538399 C-328.37273761 8.47050852 -325.97037513 8.48112441 -323.56665039 8.49829102 C-322.50125534 8.48378906 -322.50125534 8.48378906 -321.41433716 8.46899414 C-318.05270054 8.51927619 -316.29481029 8.77215343 -313.60136414 10.85380554 C-311.62173332 13.50696393 -310.7930883 15.90349979 -309.859375 19.078125 C-309.51132812 20.23828125 -309.16328125 21.3984375 -308.8046875 22.59375 C-308.45664062 23.8003125 -308.10859375 25.006875 -307.75 26.25 C-307.38648438 27.47203125 -307.02296875 28.6940625 -306.6484375 29.953125 C-305.75412071 32.96556049 -304.87181954 35.98099172 -304 39 C-298.09308816 37.31584904 -293.55105739 35.38579942 -288.6875 31.5 C-288.13755371 31.0656665 -287.58760742 30.63133301 -287.02099609 30.18383789 C-283.72598636 27.5405624 -280.62555802 24.74556949 -277.57617188 21.82495117 C-266.81590155 11.53716244 -254.15373391 4.57334153 -240 0 C-239.35321289 -0.21027832 -238.70642578 -0.42055664 -238.04003906 -0.63720703 C-211.31505322 -8.87382419 -184.08554419 -4.21580775 -159.13964844 6.82324219 C-157.30287089 7.63542273 -155.46395063 8.44275186 -153.625 9.25 C-152.56539062 9.72953125 -151.50578125 10.2090625 -150.4140625 10.703125 C-130.26807754 18.35583324 -94.35376775 19.54688182 -74.63671875 10.86328125 C-68.96007397 8.12989356 -63.78803287 4.63093126 -58.7277832 0.89599609 C-40.15988663 -12.00996334 -18.86732653 -12.55316147 0 0 Z M-56 16 C-54.61493828 18.77012343 -53.1201225 18.88030991 -50.25 19.9375 C-47.39753834 20.99222759 -45.12328851 21.91020376 -42.65527344 23.70776367 C-40.08265482 25.32482011 -40.08265482 25.32482011 -37.4921875 24.28662109 C-36.62851562 23.78727051 -35.76484375 23.28791992 -34.875 22.7734375 C-33.92109375 22.23589844 -32.9671875 21.69835937 -31.984375 21.14453125 C-30.99953125 20.56058594 -30.0146875 19.97664063 -29 19.375 C-28.01515625 18.81425781 -27.0303125 18.25351562 -26.015625 17.67578125 C-21.64177091 15.17559168 -17.31712571 12.59665827 -13 10 C-17.15264008 5.84735992 -22.70778646 5.8100613 -28.3125 5.625 C-38.88041954 5.81824196 -47.00605607 10.87037418 -56 16 Z M-273.32421875 38.203125 C-281.01797532 45.42757664 -289.92753809 50.76729906 -300 54 C-294.79817033 72.70738263 -289.08258916 91.25633607 -283.38964844 109.81842041 C-282.10077376 114.02238639 -280.81416663 118.22704624 -279.52734375 122.43164062 C-277.02039335 130.62175773 -274.51101318 138.8111276 -272 147 C-268.35393139 145.58863619 -265.2666152 144.00998806 -262.0078125 141.83984375 C-261.06252686 141.2149707 -260.11724121 140.59009766 -259.14331055 139.94628906 C-258.14726807 139.28338867 -257.15122559 138.62048828 -256.125 137.9375 C-230.02739339 120.78629798 -214.84588786 115.7033454 -183.75390625 121.68359375 C-181.72823656 122.06348679 -179.702348 122.44221448 -177.67625427 122.81983948 C-172.38171691 123.80962994 -167.0900903 124.81417382 -161.79901123 125.82226562 C-155.36167294 127.04595111 -148.92107454 128.25233631 -142.48091793 129.46108341 C-137.4733751 130.40124522 -132.4663636 131.34397407 -127.46083069 132.29478455 C-126.54050049 132.46910507 -125.62017029 132.6434256 -124.67195129 132.82302856 C-122.96568111 133.1463293 -121.25963228 133.47080166 -119.55386353 133.79673767 C-94.67283986 138.50300483 -68.36369525 136.64206852 -46.88671875 122.03515625 C-45.93410156 121.36355469 -44.98148438 120.69195312 -44 120 C-42.77860248 119.16352366 -41.55585248 118.32902002 -40.33203125 117.49609375 C-36.90472277 115.15840911 -33.49104929 112.80159601 -30.08056641 110.43945312 C-26.7257883 108.11842852 -23.36259895 105.80967226 -20 103.5 C-18.66271291 102.58079828 -17.32547335 101.66152741 -15.98828125 100.7421875 C-15.32779785 100.28811523 -14.66731445 99.83404297 -13.98681641 99.36621094 C-12.02610875 98.01795337 -10.06574217 96.66920132 -8.10546875 95.3203125 C-0.10329267 89.81481536 7.90854995 84.32365612 15.92626953 78.84082031 C22.97489904 74.01965501 30.013269 69.18369427 37.04833984 64.34277344 C40.36491764 62.06091481 43.6825171 59.78054245 47 57.5 C48.33333808 56.58334024 49.66667142 55.66667358 51 54.75 C59 49.25 59 49.25 61.00268555 47.87353516 C62.32754282 46.96244274 63.65192952 46.05066565 64.97583008 45.13818359 C68.43517743 42.75521974 71.90342806 40.38691589 75.38671875 38.0390625 C76.10666016 37.55115234 76.82660156 37.06324219 77.56835938 36.56054688 C78.93773945 35.6329023 80.30995404 34.70942218 81.68554688 33.79101562 C85.55191253 31.16412603 88.80147224 28.41257838 92 25 C85.0196619 18.86576348 79.06018684 17.16812797 69.84375 17.41015625 C63.28906446 18.41600738 58.02686367 21.47949215 52.33740234 24.69921875 C48.86643159 26.63083899 45.32949732 28.42919482 41.796875 30.24487305 C32.25098078 35.16218905 22.77927961 40.21834207 13.38525391 45.41992188 C8.41998981 48.16517872 3.42415701 50.81319585 -1.64453125 53.36328125 C-2.74611572 53.92861572 -3.8477002 54.4939502 -4.98266602 55.07641602 C-7.11388211 56.16806111 -9.25603954 57.23867887 -11.40991211 58.28491211 C-16.60174959 60.77402736 -16.60174959 60.77402736 -20.03710938 65.13476562 C-20.64050013 67.55626072 -20.64050013 67.55626072 -21 71 C-23.47480795 72.23740398 -25.12319788 72.12933209 -27.890625 72.1328125 C-29.40172852 72.13571289 -29.40172852 72.13571289 -30.94335938 72.13867188 C-32.58014648 72.1319043 -32.58014648 72.1319043 -34.25 72.125 C-35.38244141 72.12306641 -36.51488281 72.12113281 -37.68164062 72.11914062 C-44.63542333 72.08411878 -51.55739156 71.88005283 -58.5 71.5 C-68.0625461 70.98635775 -77.6138327 70.8866752 -87.1875 70.875 C-87.89310059 70.87250244 -88.59870117 70.87000488 -89.32568359 70.86743164 C-96.83125767 70.84553673 -104.2561812 70.98692936 -111.7277832 71.76416016 C-114.48684632 72.05053116 -117.22678468 72.2004783 -120 72.25 C-120.886875 72.27578125 -121.77375 72.3015625 -122.6875 72.328125 C-125 72 -125 72 -126.7890625 70.671875 C-128.66397746 68.08328273 -128.38727735 66.09821879 -128 63 C-126.33825511 60.71441068 -125.23675548 60.06574489 -122.49609375 59.3046875 C-107.70302967 57.22647926 -92.99419929 56.80409435 -78.08065796 57.3520813 C-74.07644012 57.49883603 -70.07143117 57.61979996 -66.06640625 57.7421875 C-65.28437332 57.76658401 -64.50234039 57.79098053 -63.6966095 57.81611633 C-54.1311029 58.10401849 -44.5686008 58.09579244 -35 58 C-35.45949268 56.56380245 -35.92401335 55.12921295 -36.390625 53.6953125 C-36.64875977 52.89625488 -36.90689453 52.09719727 -37.17285156 51.27392578 C-39.72529695 44.25696109 -45.24898804 38.06677571 -51.7578125 34.48046875 C-58.39505057 31.40963994 -63.4864532 29.88120245 -70.82543945 29.84228516 C-71.50418625 29.83720444 -72.18293304 29.83212372 -72.88224792 29.82688904 C-74.35433485 29.8162067 -75.8264378 29.80757818 -77.29854774 29.80076981 C-79.64281568 29.78891312 -81.98690492 29.76943689 -84.33110046 29.74765015 C-90.99614323 29.68630784 -97.66117159 29.63232114 -104.32641602 29.59863281 C-108.40960982 29.57744552 -112.49248293 29.54194489 -116.57549095 29.49787521 C-118.1176896 29.48389037 -119.65994504 29.47503328 -121.20220375 29.47182083 C-137.84415749 29.43353186 -152.50174841 26.50963812 -167.6640625 19.26171875 C-204.9066043 1.66826829 -243.87953633 10.29253528 -273.32421875 38.203125 Z M11.3125 13.0625 C10.6625708 13.40104004 10.0126416 13.73958008 9.34301758 14.08837891 C6.88644315 15.37598173 4.44388553 16.6884682 2 18 C0.24308698 18.93253078 -1.51384912 19.86501839 -3.27122498 20.79667664 C-8.90357878 23.78450437 -14.5292046 26.78497646 -20.14453125 29.8046875 C-21.20003174 30.37171387 -22.25553223 30.93874023 -23.34301758 31.52294922 C-26.10365964 33.01093594 -26.10365964 33.01093594 -29 35 C-27.31326082 39.49797113 -25.18326108 43.72886302 -23 48 C-18.45200353 46.61886526 -14.35636686 44.75825376 -10.1875 42.5078125 C-9.54441895 42.16534988 -8.90133789 41.82288727 -8.23876953 41.470047 C-6.15668726 40.35962501 -4.07829585 39.24249021 -2 38.125 C-0.5665698 37.35849941 0.86702509 36.59230672 2.30078125 35.82641602 C13.90461272 29.62000675 25.4706656 23.34374068 37 17 C34.55372203 14.37472608 32.57177453 12.49067091 29.1875 11.25 C28.56230469 11.00765625 27.93710937 10.7653125 27.29296875 10.515625 C21.08898926 9.12052229 16.85440222 10.13950342 11.3125 13.0625 Z M-382 23 C-377.37220993 62.02777242 -372.67841039 101.04754739 -367.94857788 140.06307983 C-367.35691728 144.94385582 -366.76616523 149.82474046 -366.17617798 154.70571899 C-365.47208525 160.53003834 -364.76604744 166.3541187 -364.05852509 172.17802238 C-363.79489549 174.35056578 -363.53192068 176.52318874 -363.26963043 178.69589424 C-362.90820967 181.68859937 -362.54437784 184.68100186 -362.17993164 187.67333984 C-362.07451962 188.55076749 -361.96910761 189.42819513 -361.86050129 190.33221149 C-361.76131995 191.14243857 -361.66213861 191.95266565 -361.55995178 192.78744507 C-361.47539765 193.48487005 -361.39084352 194.18229504 -361.30372715 194.90085411 C-360.95919531 197.28201296 -360.4718466 199.64076698 -360 202 C-330.3 202 -300.6 202 -270 202 C-277.00777851 178.64073828 -284.02031374 155.28780271 -291.1678772 131.97171021 C-293.51412944 124.31653199 -295.85742101 116.66044823 -298.19921875 109.00390625 C-298.43759146 108.22462454 -298.67596416 107.44534283 -298.92156029 106.64244652 C-302.58173672 94.67360143 -306.21469308 82.69669992 -309.83203125 70.71484375 C-310.30184712 69.15949838 -310.77168535 67.60415977 -311.24154663 66.04882812 C-313.25858916 59.37087788 -315.27404442 52.69246748 -317.28229237 46.01186657 C-318.09587671 43.30757303 -318.91196906 40.60404105 -319.72870445 37.90069771 C-320.28777681 36.04702407 -320.8434908 34.1923386 -321.39912415 32.33763123 C-321.72930038 31.24596146 -322.05947662 30.15429169 -322.3996582 29.02954102 C-322.68637894 28.07644547 -322.97309967 27.12334991 -323.26850891 26.14137268 C-323.8095117 24.04363361 -323.8095117 24.04363361 -325 23 C-326.77991924 22.90629376 -328.56356739 22.88255729 -330.34594727 22.88647461 C-332.05760826 22.88658791 -332.05760826 22.88658791 -333.80384827 22.88670349 C-335.66631447 22.89444542 -335.66631447 22.89444542 -337.56640625 22.90234375 C-338.83016586 22.9037587 -340.09392548 22.90517365 -341.39598083 22.90663147 C-344.76124889 22.91129418 -348.1264499 22.9202852 -351.49169922 22.93133545 C-354.9234967 22.94155154 -358.35530109 22.94612951 -361.78710938 22.95117188 C-368.52475824 22.9622262 -375.26237525 22.9789829 -382 23 Z " fill="#e23844" transform="translate(400,296)"/>
<path d="M0 0 C1.19882812 0.96873047 1.19882812 0.96873047 2.421875 1.95703125 C8.40116559 7.01881001 13.24707586 12.79138323 18 19 C18.89332031 20.15242188 18.89332031 20.15242188 19.8046875 21.328125 C31.71562166 37.46551966 40.06094954 56.94678194 42 77 C42.09837158 78.01151123 42.09837158 78.01151123 42.19873047 79.04345703 C45.22540636 112.3659247 36.4747863 143.35207069 15.625 169.625 C-6.74541341 196.18035469 -36.51036383 210.8635601 -71.03222656 213.84326172 C-92.59730833 215.56097667 -113.72901971 210.38449712 -133 201 C-134.49853516 200.27296875 -134.49853516 200.27296875 -136.02734375 199.53125 C-163.60626879 185.286755 -184.32571231 159.2892471 -194 130 C-200.25774476 108.51614291 -201.76904915 84.78013624 -196 63 C-195.81195801 62.29004883 -195.62391602 61.58009766 -195.43017578 60.84863281 C-186.78313302 29.63122624 -166.79910082 3.94769991 -138.96484375 -12.41015625 C-94.30764894 -37.68771521 -39.54881477 -32.20568688 0 0 Z M-152 16 C-152.66515625 16.58265625 -153.3303125 17.1653125 -154.015625 17.765625 C-173.55037079 35.83982905 -183.93862326 64.40177951 -184.96484375 90.4296875 C-185.56947436 120.10113902 -173.6921775 146.89217695 -153.65039062 168.33349609 C-133.99677064 188.17900053 -106.25486123 199.21145044 -78.5 199.5 C-48.38023337 199.18709639 -22.20392179 187.09785201 -1.02734375 166.08984375 C18.66646324 145.88763686 28.28470517 118.4418918 28.24658203 90.56298828 C27.83177792 60.8732422 14.73926219 35.24987907 -6.08984375 14.61352539 C-19.3367736 1.82148293 -36.22703671 -6.54333549 -54 -11 C-54.73299316 -11.18401367 -55.46598633 -11.36802734 -56.22119141 -11.55761719 C-91.15068683 -19.50547642 -126.17279002 -7.54414169 -152 16 Z " fill="#e23844" transform="translate(335,49)"/>
<path d="M0 0 C0.83259842 0.00128403 1.66519684 0.00256805 2.52302551 0.00389099 C5.25398534 0.01273772 7.9840878 0.0442319 10.71484375 0.078125 C12.6010696 0.09343441 14.48730029 0.10815888 16.37353516 0.12231445 C20.23409183 0.15538699 24.09426938 0.20051668 27.95458984 0.25439453 C32.49234418 0.31721713 37.02955945 0.34972719 41.56767273 0.37088013 C44.79461617 0.39123914 48.02092916 0.43415045 51.24752808 0.48474121 C52.76088987 0.50524214 54.27437884 0.51792441 55.78787231 0.52258301 C57.88708366 0.53179839 59.98341907 0.57227088 62.08203125 0.62109375 C63.84909424 0.64465942 63.84909424 0.64465942 65.65185547 0.66870117 C68.65234375 1.328125 68.65234375 1.328125 71.06689453 3.67700195 C72.65234375 6.328125 72.65234375 6.328125 72.58984375 9.453125 C71.61252512 12.45023545 71.10909494 13.45555794 68.65234375 15.328125 C66.20043945 15.76049805 66.20043945 15.76049805 63.328125 15.83984375 C61.78608398 15.89301758 61.78608398 15.89301758 60.21289062 15.94726562 C59.14103516 15.96982422 58.06917969 15.99238281 56.96484375 16.015625 C55.3396582 16.06686523 55.3396582 16.06686523 53.68164062 16.11914062 C51.00531155 16.2016706 48.32931216 16.27080437 45.65234375 16.328125 C46.00167969 17.00359375 46.35101563 17.6790625 46.7109375 18.375 C47.16597656 19.26703125 47.62101562 20.1590625 48.08984375 21.078125 C48.54230469 21.95984375 48.99476563 22.8415625 49.4609375 23.75 C50.48689773 25.97011066 51.16742978 27.94257119 51.65234375 30.328125 C52.7609375 30.35390625 53.86953125 30.3796875 55.01171875 30.40625 C56.47529922 30.46254156 57.93883937 30.51988867 59.40234375 30.578125 C60.13195312 30.59230469 60.8615625 30.60648438 61.61328125 30.62109375 C65.11761163 30.78038149 67.27783847 31.05211166 70.1328125 33.15625 C72.38802869 36.37964383 72.26799324 38.49741706 71.65234375 42.328125 C69.55342427 44.6222928 67.87818118 46.12509812 64.74194336 46.64453125 C62.59404147 46.72125104 60.48663522 46.67788653 58.33984375 46.578125 C57.59927734 46.56007812 56.85871094 46.54203125 56.09570312 46.5234375 C54.28068665 46.47659837 52.46634209 46.40486289 50.65234375 46.328125 C50.54148437 47.21628906 50.430625 48.10445312 50.31640625 49.01953125 C48.7057805 57.04423721 43.0353567 64.34378023 36.65234375 69.328125 C31.27532551 72.90013711 26.20039946 74.57076105 19.81640625 75.46484375 C18.65834473 75.63072998 17.5002832 75.79661621 16.30712891 75.9675293 C15.4310498 76.08652588 14.5549707 76.20552246 13.65234375 76.328125 C16.63564394 79.33643996 19.62244116 82.34122894 22.61230469 85.34301758 C23.62560527 86.36129792 24.63800087 87.38047974 25.64941406 88.40063477 C30.95819586 93.75409443 36.292464 99.01177797 42.02148438 103.92163086 C46.53408252 107.81340899 50.29184187 111.12906356 51.27734375 117.140625 C50.65234375 120.328125 50.65234375 120.328125 49.65234375 122.265625 C46.2177061 124.09027625 43.31533566 124.43212779 39.65234375 123.328125 C37.20453257 121.39631583 35.1913102 119.30946226 33.12109375 116.98046875 C31.15028501 114.8630967 29.21640491 113.04666491 27.02734375 111.17578125 C20.82054408 105.82581495 15.17855657 99.89775551 9.4296875 94.06640625 C4.85902159 89.45582186 0.24537696 84.99572797 -4.68164062 80.76757812 C-9.2021639 76.86180362 -12.98422603 73.54504935 -13.97265625 67.515625 C-13.30524244 64.11181455 -13.08290037 63.29617977 -10.34765625 61.328125 C-7.59545898 60.95922852 -7.59545898 60.95922852 -4.28125 60.95703125 C-2.46850586 60.93092773 -2.46850586 60.93092773 -0.61914062 60.90429688 C1.9094945 60.89527984 4.43814602 60.8899882 6.96679688 60.88867188 C15.15076325 60.76303131 23.27473463 60.35128525 29.58813477 54.54907227 C32.19032921 51.68613038 33.95176219 48.79015104 35.65234375 45.328125 C33.69228394 45.36740112 33.69228394 45.36740112 31.69262695 45.4074707 C26.83798387 45.49806824 21.9834153 45.55540945 17.12817383 45.6027832 C15.02811105 45.62790551 12.92813552 45.66200958 10.82836914 45.70532227 C7.80723535 45.76607371 4.78725879 45.79435763 1.765625 45.81640625 C0.82898514 45.84221268 -0.10765472 45.8680191 -1.07267761 45.89460754 C-5.64060382 45.89656669 -7.69836723 45.8069357 -11.47192383 43.02416992 C-13.34765625 40.328125 -13.34765625 40.328125 -13.47265625 36.703125 C-12.34765625 33.328125 -12.34765625 33.328125 -10.39575195 31.62182617 C-6.02239003 29.76564317 -2.14572862 30.06226756 2.546875 30.25390625 C3.96790779 30.29356758 3.96790779 30.29356758 5.41764832 30.33403015 C8.43403668 30.42157868 11.44919226 30.53080328 14.46484375 30.640625 C16.51362814 30.70390604 18.56245679 30.76577134 20.61132812 30.82617188 C25.62566092 30.97708539 30.63899908 31.14743827 35.65234375 31.328125 C34.88549679 30.05149588 34.11206242 28.77882245 33.3359375 27.5078125 C32.90595459 26.79866699 32.47597168 26.08952148 32.03295898 25.35888672 C28.64001447 20.36816833 24.43544559 17.93822831 18.65234375 16.328125 C15.63175701 16.00051223 15.63175701 16.00051223 12.51953125 15.984375 C11.38386719 15.95472656 10.24820313 15.92507812 9.078125 15.89453125 C6.70312773 15.85011436 4.3281277 15.80584448 1.953125 15.76171875 C0.82003906 15.73207031 -0.31304687 15.70242187 -1.48046875 15.671875 C-2.51059082 15.65318359 -3.54071289 15.63449219 -4.60205078 15.61523438 C-7.36738135 15.32606234 -9.01558031 14.80716434 -11.34765625 13.328125 C-13.254674 10.78543466 -13.35353384 9.47212607 -13.22265625 6.265625 C-11.22998964 -0.42404148 -6.13112562 -0.09567319 0 0 Z " fill="#e23844" transform="translate(227.34765625,79.671875)"/>
<path d="M0 0 C5.23782695 3.54529778 8.03943963 8.24000291 9.54296875 14.3203125 C10.42321187 20.37082574 10.02239991 25.47964681 6.51953125 30.6171875 C2.5705843 35.34212839 -1.63753703 39.48002761 -7.95703125 40.3828125 C-13.82539558 40.77403679 -18.82788268 40.48487241 -23.95703125 37.3828125 C-28.5117531 33.16812882 -32.62706275 28.69963869 -33.2578125 22.359375 C-33.28505779 14.5672221 -32.86585456 9.87340048 -27.76953125 3.7578125 C-19.33673302 -3.36321712 -10.10587325 -5.11553938 0 0 Z M-17.39453125 14.5703125 C-19.18232403 17.22928589 -19.18232403 17.22928589 -18.89453125 20.0078125 C-17.86440961 22.61745399 -17.30758264 23.84279607 -14.95703125 25.3828125 C-11.99982497 26.04961618 -11.99982497 26.04961618 -8.95703125 25.3828125 C-6.38553735 23.3143238 -6.38553735 23.3143238 -4.95703125 20.3828125 C-5.02595544 17.48799642 -5.56841808 15.97595892 -7.14453125 13.5703125 C-11.02884223 11.0254191 -14.04777811 11.5668161 -17.39453125 14.5703125 Z " fill="#e23844" transform="translate(92.95703125,452.6171875)"/>
<path d="M0 0 C1.04800781 -0.02320312 1.04800781 -0.02320312 2.1171875 -0.046875 C5.74756521 -0.01947592 7.86341822 0.41477153 10.9609375 2.34765625 C13 4.5 13 4.5 13.625 7.4375 C12.77940942 11.58089386 11.29680898 12.88603932 8 15.5 C5.08581227 16.00759417 2.8894271 16.20496569 0 16.125 C-1.04800781 16.15400391 -1.04800781 16.15400391 -2.1171875 16.18359375 C-6.05685003 16.14642712 -7.85085938 15.61825001 -10.9609375 13.15234375 C-13 10.5 -13 10.5 -13.625 7.4375 C-13 4.5 -13 4.5 -10.9609375 2.34765625 C-7.26175085 0.03932474 -4.22669313 -0.09357992 0 0 Z " fill="#e23844" transform="translate(407,98.5)"/>
<path d="M0 0 C1.05477539 -0.0299707 1.05477539 -0.0299707 2.13085938 -0.06054688 C5.76200165 -0.05714374 7.90933827 0.34406932 11.02734375 2.24609375 C13.0625 4.4375 13.0625 4.4375 13.6875 7.9375 C13.0625 11.4375 13.0625 11.4375 11.0234375 13.62109375 C7.32944278 15.88719869 4.27052914 16.06599308 0.0625 16 C-0.98550781 16.03577148 -0.98550781 16.03577148 -2.0546875 16.07226562 C-5.9866515 16.06113742 -7.79523698 15.54711857 -10.93359375 13.12890625 C-12.9375 10.4375 -12.9375 10.4375 -13 6.8125 C-10.87367431 0.05828898 -6.44813227 -0.06465766 0 0 Z " fill="#e23844" transform="translate(141.9375,21.5625)"/>
<path d="M0 0 C1.05477539 -0.0299707 1.05477539 -0.0299707 2.13085938 -0.06054688 C5.76200165 -0.05714374 7.90933827 0.34406932 11.02734375 2.24609375 C13.0625 4.4375 13.0625 4.4375 13.6875 7.9375 C13.0625 11.4375 13.0625 11.4375 11.0234375 13.62109375 C7.32944278 15.88719869 4.27052914 16.06599308 0.0625 16 C-0.98550781 16.03577148 -0.98550781 16.03577148 -2.0546875 16.07226562 C-5.9866515 16.06113742 -7.79523698 15.54711857 -10.93359375 13.12890625 C-12.9375 10.4375 -12.9375 10.4375 -13 6.8125 C-10.87367431 0.05828898 -6.44813227 -0.06465766 0 0 Z " fill="#e23844" transform="translate(107.9375,21.5625)"/>
<path d="M0 0 C0.69867188 -0.01095703 1.39734375 -0.02191406 2.1171875 -0.03320312 C5.71569306 0.01771912 7.87953394 0.48859932 10.9609375 2.37890625 C13 4.5625 13 4.5625 13.625 8.0625 C13 11.5625 13 11.5625 10.9296875 13.75390625 C7.22424161 16.04140151 4.82919636 16.06493795 0.5 16 C-0.7890625 15.99871094 -2.078125 15.99742188 -3.40625 15.99609375 C-7.14226106 15.54533589 -9.08074147 14.9011625 -12 12.5625 C-13.125 9.1875 -13.125 9.1875 -13 5.5625 C-9.27116483 0.56411978 -5.96742433 -0.20368515 0 0 Z " fill="#e23844" transform="translate(441,98.4375)"/>
<path d="M0 0 C1.87109375 0.328125 1.87109375 0.328125 3.80859375 1.640625 C6.08255418 5.25220921 6.03482198 8.54781941 6.05859375 12.703125 C6.07277344 13.82460938 6.08695313 14.94609375 6.1015625 16.1015625 C5.8712497 19.32594176 5.39114936 21.48694723 3.87109375 24.328125 C0.5488852 26.0261427 -1.23683086 26.55114385 -4.87890625 25.640625 C-7.12890625 24.328125 -7.12890625 24.328125 -9.12890625 21.328125 C-9.35083336 18.47189426 -9.4533901 15.74517809 -9.44140625 12.890625 C-9.45751953 12.12685547 -9.47363281 11.36308594 -9.49023438 10.57617188 C-9.49319199 7.17786799 -9.41153733 4.88643009 -7.859375 1.8203125 C-5.23364012 -0.44386521 -3.33175239 -0.1711726 0 0 Z " fill="#e23844" transform="translate(127.12890625,33.671875)"/>
<path d="M0 0 C1.87109375 0.328125 1.87109375 0.328125 3.80859375 1.640625 C6.0717087 5.23498404 6.06426607 8.56417532 6.12109375 12.703125 C6.15976563 14.38535156 6.15976563 14.38535156 6.19921875 16.1015625 C5.80964323 19.93238847 4.61300142 22.58621733 1.87109375 25.328125 C-3.92478961 25.79553495 -3.92478961 25.79553495 -6.12890625 25.328125 C-9.02603402 22.84207617 -9.1424209 21.1935085 -9.52734375 17.359375 C-9.53527939 15.84895898 -9.52698324 14.33838557 -9.50390625 12.828125 C-9.51550781 12.06886719 -9.52710937 11.30960938 -9.5390625 10.52734375 C-9.5219089 7.26244182 -9.34679137 4.75654328 -7.85546875 1.82421875 C-5.23426104 -0.44709925 -3.33204897 -0.17118784 0 0 Z " fill="#e23844" transform="translate(127.12890625,-0.328125)"/>
<path d="M0 0 C2.97361054 0.96965561 3.98495331 1.53086342 5.875 3.9375 C6.26318359 5.97460938 6.26318359 5.97460938 6.2734375 8.28125 C6.27730469 9.11527344 6.28117187 9.94929688 6.28515625 10.80859375 C6.27355469 11.67613281 6.26195312 12.54367188 6.25 13.4375 C6.26160156 14.30503906 6.27320313 15.17257813 6.28515625 16.06640625 C6.28128906 16.90042969 6.27742188 17.73445313 6.2734375 18.59375 C6.27005371 19.35494141 6.26666992 20.11613281 6.26318359 20.90039062 C5.77590169 23.457548 4.89858244 24.3484709 2.875 25.9375 C0.9375 26.3359375 0.9375 26.3359375 -1.125 26.3125 C-1.805625 26.32023437 -2.48625 26.32796875 -3.1875 26.3359375 C-5.72369397 25.81438148 -6.50905399 24.9392223 -8.125 22.9375 C-8.77205799 19.82296914 -8.63448298 16.67442637 -8.625 13.5 C-8.65335937 12.64083984 -8.68171875 11.78167969 -8.7109375 10.89648438 C-8.73044005 4.61178608 -8.73044005 4.61178608 -5.7890625 1.3359375 C-3.125 -0.0625 -3.125 -0.0625 0 0 Z " fill="#e23844" transform="translate(425.125,76.0625)"/>
<path d="M0 0 C2.8199387 2.8199387 2.28962838 4.92904159 2.32226562 8.78320312 C2.31904297 9.65912109 2.31582031 10.53503906 2.3125 11.4375 C2.32861328 12.30955078 2.34472656 13.18160156 2.36132812 14.08007812 C2.36197266 14.91861328 2.36261719 15.75714844 2.36328125 16.62109375 C2.36775269 17.77242798 2.36775269 17.77242798 2.37231445 18.94702148 C1.90490244 21.52437731 1.03795784 22.40468399 -1 24 C-2.9375 24.3984375 -2.9375 24.3984375 -5 24.375 C-5.680625 24.38273437 -6.36125 24.39046875 -7.0625 24.3984375 C-9.59991203 23.87663099 -10.38738499 23.00637353 -12 21 C-12.38818359 18.96289062 -12.38818359 18.96289062 -12.3984375 16.65625 C-12.40230469 15.82222656 -12.40617187 14.98820312 -12.41015625 14.12890625 C-12.39275391 12.82759766 -12.39275391 12.82759766 -12.375 11.5 C-12.38660156 10.63246094 -12.39820313 9.76492187 -12.41015625 8.87109375 C-12.40435547 7.62005859 -12.40435547 7.62005859 -12.3984375 6.34375 C-12.39505371 5.58255859 -12.39166992 4.82136719 -12.38818359 4.03710938 C-11.89600277 1.45424349 -11.05654913 0.59692097 -9 -1 C-5.19825711 -2.26724763 -3.6488868 -1.4750819 0 0 Z " fill="#e23844" transform="translate(429,112)"/>
</svg>
