<?xml version="1.0" encoding="UTF-8"?>
<svg version="1.1" xmlns="http://www.w3.org/2000/svg" width="512" height="512">
<path d="M0 0 C168.96 0 337.92 0 512 0 C512 168.96 512 337.92 512 512 C343.04 512 174.08 512 0 512 C0 343.04 0 174.08 0 0 Z " fill="#FEFEFE" transform="translate(0,0)"/>
<path d="M0 0 C6.58480915 6.4115247 9.7082579 12.37848273 9.89501953 21.5324707 C9.76610781 38.22653829 9.76610781 38.22653829 4.375 44.3125 C-0.32138151 48.46995249 -4.43263722 51.20238996 -10.625 52.3125 C-3.63664012 79.06812404 4.63438908 105.32737524 13.27563477 131.58569336 C16.17475492 140.41079566 19.02266904 149.25054185 21.7421875 158.1328125 C22.11913254 159.34081009 22.11913254 159.34081009 22.50369263 160.57321167 C23.99132028 165.49573418 24.87372004 170.19243966 25.375 175.3125 C26.32375 175.374375 27.2725 175.43625 28.25 175.5 C36.25789503 176.66714259 43.9585729 181.38742365 49.375 187.3125 C54.375 194.1018401 54.375 194.1018401 54.375 197.3125 C55.21160156 197.33828125 56.04820312 197.3640625 56.91015625 197.390625 C75.02497662 198.2732962 93.64275741 203.94189328 107.375 216.3125 C108.56996094 217.37017578 108.56996094 217.37017578 109.7890625 218.44921875 C116.53402202 224.77643908 124.87316115 233.3845286 125.6875 243.00390625 C125.29051337 247.20700222 124.12354746 249.12997136 121.375 252.3125 C117.741174 254.55464796 114.53193948 255.5458225 110.375 256.3125 C111.06335938 257.36824219 111.06335938 257.36824219 111.765625 258.4453125 C120.32996138 272.22741684 123.71868687 286.26084436 120.3125 302.3125 C115.93689139 317.57625095 107.02644765 330.88314226 93.375 339.3125 C79.19742371 346.36935667 62.42430807 349.57564733 46.875 344.75 C30.14352964 337.9867155 19.12203968 327.41249308 11.375 311.3125 C11.375 310.6525 11.375 309.9925 11.375 309.3125 C10.22 309.23 9.065 309.1475 7.875 309.0625 C-0.07345894 308.01111654 -4.98538114 304.47522492 -10.1796875 298.5078125 C-11.90209879 295.89160941 -12.74633622 293.30678141 -13.625 290.3125 C-14.37523437 290.72242188 -15.12546875 291.13234375 -15.8984375 291.5546875 C-17.43371094 292.36292969 -17.43371094 292.36292969 -19 293.1875 C-19.99773437 293.72117187 -20.99546875 294.25484375 -22.0234375 294.8046875 C-31.37253116 298.71873322 -40.95369352 298.61570247 -50.95361328 298.61889648 C-52.47903848 298.62653178 -54.00445988 298.63496159 -55.52987671 298.64411926 C-59.64540056 298.66592372 -63.76085021 298.67484294 -67.87642527 298.67994571 C-70.45184475 298.68360303 -73.02724516 298.68984983 -75.60265732 298.6969471 C-84.59855749 298.72138321 -93.59440038 298.73448287 -102.59033203 298.73803711 C-110.96000114 298.74167795 -119.32930486 298.77162738 -127.6988622 298.81344169 C-134.90253896 298.84816294 -142.10609453 298.86358579 -149.30985439 298.86428314 C-153.60480591 298.86507469 -157.89938361 298.87375861 -162.1942482 298.90228081 C-166.23119344 298.92849655 -170.2674555 298.93064764 -174.30444717 298.91462517 C-175.78143813 298.91281402 -177.25846876 298.91947128 -178.73537445 298.93544388 C-186.8963623 299.01829377 -193.36276717 298.99363476 -199.625 293.3125 C-202.34711107 290.45079349 -204.04114049 288.25355168 -204.625 284.3125 C-205.615 284.3125 -206.605 284.3125 -207.625 284.3125 C-207.59019531 285.03953125 -207.55539063 285.7665625 -207.51953125 286.515625 C-207.10688391 301.84252619 -211.87983062 316.09057409 -222 327.75 C-233.37785385 339.43381295 -246.15605438 346.24596084 -262.65478516 346.60498047 C-279.94347494 346.73834571 -292.61856156 341.64927596 -305.3046875 329.71875 C-314.91263041 319.75495735 -320.81609967 306.9512641 -320.6875 293.0625 C-320.67847656 291.79921875 -320.66945313 290.5359375 -320.66015625 289.234375 C-320.64855469 288.27015625 -320.63695312 287.3059375 -320.625 286.3125 C-321.74455078 285.94125 -321.74455078 285.94125 -322.88671875 285.5625 C-325.89417401 284.18962456 -327.3206082 282.8214088 -329.4375 280.3125 C-330.04207031 279.61125 -330.64664063 278.91 -331.26953125 278.1875 C-332.625 276.3125 -332.625 276.3125 -332.625 274.3125 C-333.759375 274.27125 -334.89375 274.23 -336.0625 274.1875 C-342.79003411 273.33908984 -347.8691073 269.4735987 -352.0625 264.3125 C-356.08405775 256.59110911 -356.06300693 249.34153762 -356.0625 240.8125 C-356.06423218 240.12564117 -356.06596436 239.43878235 -356.06774902 238.73110962 C-356.04956071 222.270448 -353.01330498 207.47169924 -346.625 192.3125 C-347.21877441 191.82676514 -347.81254883 191.34103027 -348.42431641 190.84057617 C-353.68040971 186.49635509 -356.23117537 183.85692164 -357 176.9375 C-356.19970486 169.20131369 -350.86619866 164.05719387 -345.6875 158.6875 C-345.07970703 158.04554688 -344.47191406 157.40359375 -343.84570312 156.7421875 C-342.11637002 154.92144412 -340.37212391 153.11615003 -338.625 151.3125 C-337.73683594 150.37664062 -336.84867187 149.44078125 -335.93359375 148.4765625 C-331.6544065 144.46527699 -328.57557989 144.06744766 -322.734375 144.0390625 C-321.37108572 144.01876154 -320.00780454 143.99791054 -318.64453125 143.9765625 C-316.51409049 143.95405957 -314.38397174 143.93752478 -312.25341797 143.93164062 C-304.10899889 143.89378602 -297.68234645 143.7181462 -290.625 139.3125 C-289.03789689 138.68422284 -287.43617591 138.08909759 -285.8125 137.5625 C-285.08417969 137.32015625 -284.35585938 137.0778125 -283.60546875 136.828125 C-281.625 136.3125 -281.625 136.3125 -278.625 136.3125 C-278.65980469 135.12914062 -278.69460938 133.94578125 -278.73046875 132.7265625 C-278.98550891 120.61664051 -278.7695172 111.03565869 -270.6484375 101.35546875 C-263.16783371 93.80265836 -255.30015973 91.1104413 -244.87329102 91.03033447 C-243.88401611 91.03281189 -242.89474121 91.03528931 -241.87548828 91.0378418 C-240.81602997 91.03273087 -239.75657166 91.02761993 -238.66500854 91.02235413 C-235.17505183 91.00849432 -231.68529341 91.00941226 -228.1953125 91.01171875 C-225.76064989 91.00782977 -223.32598796 91.00349468 -220.8913269 90.99873352 C-215.79227498 90.99127901 -210.6932923 90.991557 -205.59423828 90.99682617 C-199.07209994 91.00261884 -192.55024575 90.98569064 -186.02815437 90.9624815 C-181.00086826 90.94772262 -175.97365023 90.94687543 -170.94634628 90.94999123 C-168.5422802 90.94947907 -166.13821019 90.9442613 -163.73416519 90.93417931 C-160.3670246 90.92179116 -157.00043312 90.92862139 -153.63330078 90.94018555 C-152.64807434 90.93254181 -151.6628479 90.92489807 -150.64776611 90.91702271 C-140.60220753 90.99296765 -132.37831806 93.84410094 -124.625 100.3125 C-116.96608121 108.37188513 -115.1584 116.77581022 -115.15625 127.57421875 C-115.14863647 128.64186966 -115.14102295 129.70952057 -115.13317871 130.80952454 C-115.12241421 133.06106235 -115.11950968 135.31264996 -115.12402344 137.56420898 C-115.12499224 140.97271116 -115.0833981 144.37893349 -115.0390625 147.78710938 C-114.93934664 165.85746115 -118.40646762 177.00925228 -128.75341797 191.94091797 C-134.38119025 200.10200272 -138.35944901 207.50859781 -140.625 217.3125 C-140.81449219 218.10269531 -141.00398437 218.89289063 -141.19921875 219.70703125 C-142.83580979 229.72176722 -142.53865016 240.25864461 -137.625 249.3125 C-133.42401874 255.09116 -128.5657136 258.47630863 -121.625 260.3125 C-114.2661136 261.37355396 -106.7925685 261.19968192 -99.375 261.1875 C-97.35804704 261.20565614 -95.34111615 261.2264679 -93.32421875 261.25 C-88.42419687 261.30145851 -83.52527698 261.31695827 -78.625 261.3125 C-78.64949219 260.23226563 -78.67398437 259.15203125 -78.69921875 258.0390625 C-78.58634658 252.37169133 -76.87188569 248.7152464 -73.125 244.5 C-69.66488404 241.47239853 -67.71743448 240.05988132 -63.15356445 240.08544922 C-61.80250359 240.08567581 -61.80250359 240.08567581 -60.42414856 240.08590698 C-59.45531235 240.09622955 -58.48647614 240.10655212 -57.48828125 240.1171875 C-55.99641548 240.12143234 -55.99641548 240.12143234 -54.47441101 240.12576294 C-51.2953187 240.13696511 -48.11650728 240.16206986 -44.9375 240.1875 C-42.78320719 240.19752975 -40.62890997 240.20665561 -38.47460938 240.21484375 C-33.19131028 240.23690454 -27.90817521 240.27038244 -22.625 240.3125 C-17.55653165 215.11323783 -17.43714512 192.34195072 -22.82910156 167.12744141 C-24.19380506 160.58607427 -25.3932487 154.01372874 -26.61691284 147.4447937 C-27.35904274 143.47705958 -28.11549287 139.51206183 -28.87109375 135.546875 C-29.85306501 130.390768 -30.82823082 125.23354526 -31.78840637 120.07333374 C-34.34232242 106.36627982 -37.10833598 92.7414106 -40.375 79.1875 C-40.66890625 77.96546875 -40.9628125 76.7434375 -41.265625 75.484375 C-42.46546136 70.60726237 -43.66551702 65.94698374 -45.625 61.3125 C-46.56351807 61.84991821 -46.56351807 61.84991821 -47.52099609 62.39819336 C-50.34701054 64.0160223 -53.17349904 65.63302121 -56 67.25 C-56.98484375 67.81396484 -57.9696875 68.37792969 -58.984375 68.95898438 C-59.92539062 69.49716797 -60.86640625 70.03535156 -61.8359375 70.58984375 C-62.70524902 71.08734131 -63.57456055 71.58483887 -64.47021484 72.09741211 C-69.18619797 74.75676493 -73.24101416 75.18840217 -78.625 74.3125 C-82.05903788 72.31238833 -84.83675747 69.88898506 -86.625 66.3125 C-86.8984375 63.921875 -86.8984375 63.921875 -87 61.0625 C-87.04898437 60.12921875 -87.09796875 59.1959375 -87.1484375 58.234375 C-86.41351231 54.13195677 -84.73224747 51.93253739 -81.625 49.3125 C-77.37312082 46.50855805 -72.95362499 44.02736146 -68.5 41.5625 C-67.29493921 40.88524092 -66.09050588 40.2068641 -64.88671875 39.52734375 C-62.68541047 38.28615411 -60.48112616 37.05021724 -58.27294922 35.82128906 C-54.04735831 33.70772334 -54.04735831 33.70772334 -51.88671875 29.80859375 C-51.69722656 28.79925781 -51.50773437 27.78992188 -51.3125 26.75 C-49.28488048 18.02287474 -45.30823867 11.76645771 -37.8984375 6.65625 C-26.93310003 0.17501961 -12.39356621 -5.76941875 0 0 Z " fill="#e23844" transform="translate(371.625,83.6875)"/>
<path d="M0 0 C0.89697266 1.81103516 0.89697266 1.81103516 1.6640625 4.2890625 C1.97311523 5.26641357 2.28216797 6.24376465 2.60058594 7.25073242 C2.93864258 8.36424072 3.27669922 9.47774902 3.625 10.625 C3.99399414 11.80618408 4.36298828 12.98736816 4.74316406 14.2043457 C5.63036853 17.04651511 6.50845634 19.89134549 7.38183594 22.73779297 C8.93675959 27.80255972 10.50856112 32.86201069 12.08151245 37.92120361 C24.7368612 78.62900513 24.7368612 78.62900513 28.953125 92.86328125 C29.15162048 93.5294194 29.35011597 94.19555756 29.55462646 94.88188171 C30.53796284 98.23262274 31.37746263 101.56338131 32 105 C32.67804688 105.15855469 33.35609375 105.31710937 34.0546875 105.48046875 C44.14708466 108.01055723 53.03643819 111.03380567 59 120 C61.54729643 124.39987566 61.54519426 129.04049092 61 134 C59.17185036 139.48444893 55.73718983 142.86848687 51 146 C47.15172247 147.86146324 43.17023873 149.3727444 39.06225586 150.56005859 C33.79747276 152.22637012 31.24053685 154.46185323 28.4375 159.25 C27.59532486 160.59131714 26.75285658 161.93245025 25.91015625 163.2734375 C25.45398926 164.0169043 24.99782227 164.76037109 24.52783203 165.52636719 C21.54626777 170.35366171 18.45498645 175.11018558 15.375 179.875 C14.7658374 180.83696289 14.1566748 181.79892578 13.52905273 182.79003906 C5.31245099 195.56676098 -3.7382586 205.39833267 -19 209 C-23.51581566 209.73146986 -27.85412267 210.12782929 -32.42678833 210.14044189 C-33.67447998 210.14615204 -34.92217163 210.15186218 -36.20767212 210.15774536 C-37.57220449 210.15899036 -38.93673697 210.16011553 -40.30126953 210.16113281 C-41.75230026 210.16576694 -43.20332978 210.17079239 -44.65435791 210.17617798 C-48.57977332 210.18923904 -52.50517169 210.19573353 -56.43060541 210.20018864 C-58.88453428 210.20312706 -61.33845856 210.2072331 -63.7923851 210.21169281 C-71.47517598 210.22534562 -79.15795628 210.23502543 -86.84075844 210.2388947 C-95.70178463 210.24338261 -104.56265711 210.26097364 -113.42363656 210.2898953 C-120.28155175 210.31150136 -127.13942363 210.32159826 -133.99737251 210.32293582 C-138.09041194 210.3239838 -142.18330643 210.3298911 -146.27630997 210.34775543 C-150.12265104 210.36421955 -153.96873789 210.36639984 -157.81510162 210.35761642 C-159.22561448 210.35684539 -160.63614093 210.3611975 -162.04661942 210.37107468 C-163.9734311 210.38377593 -165.90034477 210.37613228 -167.82717896 210.36749268 C-168.90488115 210.36895924 -169.98258335 210.3704258 -171.09294319 210.3719368 C-174.42547135 209.94556403 -176.29814294 208.96256331 -179 207 C-180.51763679 204.86151179 -181.06890537 203.74856283 -180.828125 201.1328125 C-179.66950313 198.14881466 -177.82783635 196.84664978 -175.375 194.8125 C-164.47968022 185.23641409 -157.44973246 173.67451416 -156 159 C-154.99557326 142.4981226 -158.10610703 129.27439314 -168.25 115.6875 C-182.28724155 101.96928667 -197.45378336 97.63177674 -216.54614258 97.73925781 C-218.79731496 97.74992803 -221.04768076 97.73934333 -223.29882812 97.7265625 C-246.55683898 97.70318826 -269.60489658 103.88928624 -287 120 C-287.48452637 120.44359863 -287.96905273 120.88719727 -288.46826172 121.34423828 C-295.55514549 127.89400152 -301.32481305 134.48077044 -306 143 C-306.59425781 144.03382813 -307.18851562 145.06765625 -307.80078125 146.1328125 C-314.37018443 158.25877725 -317.71987584 171.31356612 -319 185 C-323.83766699 184.58534283 -325.85646376 182.5801385 -329 179 C-334.55303688 167.89392624 -330.79392579 142.71754393 -327.33251953 131.22045898 C-318.85593176 106.15414154 -302.85747384 86.87377533 -279.67578125 74.1796875 C-266.77816523 67.86572541 -254.42971856 65.3860918 -240.17016602 65.54589844 C-238.75910474 65.54703073 -237.34804112 65.54638563 -235.9369812 65.54412842 C-232.15885006 65.54299521 -228.38124184 65.56627424 -224.60323071 65.59442425 C-220.63549379 65.61967434 -216.66774079 65.62179828 -212.69993591 65.62652588 C-205.20984455 65.6388871 -197.71999074 65.67161432 -190.2300033 65.71192384 C-181.6929713 65.75685687 -173.15592709 65.77868235 -164.618806 65.79870558 C-147.07906731 65.84035431 -129.53955889 65.91057075 -112 66 C-111.91165316 69.31232698 -111.85916416 72.62434435 -111.8125 75.9375 C-111.78736328 76.86369141 -111.76222656 77.78988281 -111.73632812 78.74414062 C-111.64779649 87.15464627 -113.27457814 94.14546438 -118.1796875 101.0859375 C-118.77910156 101.95476562 -119.37851563 102.82359375 -119.99609375 103.71875 C-120.61613281 104.5953125 -121.23617187 105.471875 -121.875 106.375 C-134.17782734 123.83206448 -139.04150052 141.6891863 -137 163 C-134.98264725 173.02977639 -129.49991298 180.5122066 -121.41796875 186.578125 C-114.64663557 190.5599752 -108.89932566 192.5995136 -101.02709961 192.51757812 C-100.1803215 192.5245874 -99.3335434 192.53159668 -98.46110535 192.53881836 C-95.69117418 192.55627367 -92.92228339 192.54482151 -90.15234375 192.53125 C-88.2113882 192.53394825 -86.27043398 192.53783344 -84.32948303 192.54284668 C-80.27380424 192.54872463 -76.21847927 192.54023291 -72.1628418 192.52148438 C-66.97896424 192.49868065 -61.79591455 192.51183784 -56.61206722 192.53577423 C-52.60817792 192.55026531 -48.60448318 192.54561131 -44.60058784 192.53526306 C-42.68972232 192.53260572 -40.7788388 192.53583041 -38.86799431 192.54518127 C-36.19269227 192.55540336 -33.51871022 192.53976828 -30.84350586 192.51757812 C-30.06354248 192.52567505 -29.2835791 192.53377197 -28.47998047 192.54211426 C-21.87196345 192.44117966 -16.82544338 190.30865288 -11.71484375 186.1328125 C3.05064734 169.45267531 7.37589315 147.43045594 7.3125 125.75 C7.32861328 124.66332031 7.34472656 123.57664062 7.36132812 122.45703125 C7.3663839 113.7914291 6.0999514 105.64739515 4.43008423 97.18151855 C4.00735376 95.03730053 3.59859014 92.89088928 3.1940918 90.74316406 C2.37487594 86.4088907 1.53323569 82.07916601 0.6875 77.75 C0.53759613 76.98018799 0.38769226 76.21037598 0.23324585 75.41723633 C-2.92324935 59.21676552 -6.27647608 43.05973978 -9.64599609 26.90234375 C-10.22743526 24.10258277 -10.80226253 21.30155197 -11.375 18.5 C-11.54281982 17.69884766 -11.71063965 16.89769531 -11.88354492 16.07226562 C-13.5387453 7.91863959 -13.5387453 7.91863959 -13 5 C-10.91796875 3.1640625 -10.91796875 3.1640625 -8.1875 1.625 C-6.84751953 0.83996094 -6.84751953 0.83996094 -5.48046875 0.0390625 C-3 -1 -3 -1 0 0 Z " fill="#FBFBFB" transform="translate(357,162)"/>
<path d="M0 0 C2.7147745 0.01393571 5.42613557 -0.02041724 8.140625 -0.05834961 C21.92723635 -0.11802816 33.1775261 2.24666887 43.6484375 11.95141602 C44.4528125 12.81766602 45.2571875 13.68391602 46.0859375 14.57641602 C46.9109375 15.46329102 47.7359375 16.35016602 48.5859375 17.26391602 C57.59113218 28.23543485 57.85989277 40.06036949 57.0859375 53.57641602 C55.54120281 64.77219958 47.98363168 75.79585808 39.0859375 82.57641602 C28.44368738 88.9416389 18.68898593 91.87323305 6.33105469 91.8828125 C5.40142914 91.89113602 4.47180359 91.89945953 3.51400757 91.90803528 C0.47023224 91.93194709 -2.57332851 91.94088041 -5.6171875 91.94750977 C-7.74469056 91.95648428 -9.872193 91.96560627 -11.99969482 91.97486877 C-16.44447358 91.99130566 -20.88917742 91.99905029 -25.33398438 92.00195312 C-31.02934927 92.00735825 -36.72401213 92.04514884 -42.41917801 92.09069729 C-46.80636181 92.12041673 -51.1933746 92.12767543 -55.58065033 92.12867928 C-57.68103023 92.13288496 -59.78141049 92.14533315 -61.88169098 92.16619682 C-64.81391178 92.19302913 -67.74447728 92.18831209 -70.67675781 92.17578125 C-71.54231293 92.19061554 -72.40786804 92.20544983 -73.2996521 92.22073364 C-77.70296759 92.16710214 -79.38603854 91.99544734 -82.95294189 89.16481018 C-84.8663626 86.63937294 -85.54169476 85.69095189 -85.5078125 82.60766602 C-85.5078125 81.87854004 -85.5078125 81.14941406 -85.5078125 80.39819336 C-85.476875 79.63200684 -85.4459375 78.86582031 -85.4140625 78.07641602 C-85.3934375 77.2754248 -85.3728125 76.47443359 -85.3515625 75.64916992 C-84.56793287 55.25439249 -74.44401797 35.78621992 -59.9140625 21.57641602 C-53.77626107 16.21729089 -47.25999285 11.97701103 -40.0390625 8.26391602 C-39.1409082 7.79393188 -39.1409082 7.79393188 -38.22460938 7.31445312 C-25.7045556 1.18061003 -13.71086612 -0.09811218 0 0 Z " fill="#FEFEFE" transform="translate(133.9140625,269.423583984375)"/>
<path d="M0 0 C1.05960434 -0.00700928 2.11920868 -0.01401855 3.21092224 -0.02124023 C6.69565437 -0.0387711 10.17956697 -0.02721339 13.66430664 -0.01367188 C16.09754084 -0.01636838 18.53077399 -0.02025212 20.96400452 -0.02526855 C26.05716233 -0.03115716 31.150039 -0.02262153 36.24316406 -0.00390625 C42.75754426 0.01887024 49.27126474 0.00576366 55.78562069 -0.01819611 C60.80864898 -0.03268139 65.83152205 -0.02803526 70.85455513 -0.01768494 C73.25582521 -0.01502459 75.65710957 -0.01826293 78.05836296 -0.02760315 C81.42079623 -0.03781192 84.78217602 -0.02220524 88.14453125 0 C89.12818665 -0.00809692 90.11184204 -0.01619385 91.12530518 -0.02453613 C97.97986372 0.05892382 104.48837148 1.19590381 109.72659206 5.96477509 C117.07095277 14.42578292 115.13696289 18.67877076 115.13696289 31.51757812 C68.60696289 31.51757812 22.07696289 31.51757812 -25.86303711 31.51757812 C-25.86303711 11.51757812 -25.86303711 11.51757812 -18.86303711 4.51757812 C-12.77786997 0.38438317 -7.19767289 -0.05912571 0 0 Z " fill="#FEFEFE" transform="translate(129.863037109375,185.482421875)"/>
<path d="M0 0 C21.45017458 1.52277861 37.48246726 8.55536115 52 25 C57 31.65168539 57 31.65168539 57 36 C55.77667969 36.01417969 54.55335938 36.02835937 53.29296875 36.04296875 C30.27717917 36.57988094 7.83570858 42.41860726 -9 59 C-13.69363924 64.04361792 -17.98237966 69.41858065 -22.22265625 74.84375 C-33.42594066 89.17704643 -33.42594066 89.17704643 -42.68359375 90.3359375 C-48.63543859 90.42036083 -52.43329211 90.23255853 -57 86 C-60.05926739 82.19658649 -62.20278748 78.9682932 -62 74 C-60.61990182 72.3927428 -59.23407649 70.79011497 -57.82275391 69.21020508 C-54.13379502 64.73710772 -51.19979875 59.7175361 -48.125 54.8125 C-46.10287807 51.60788481 -44.07746562 48.40573491 -42.03833008 45.21191406 C-40.64985145 43.02400834 -39.28326585 40.82209028 -37.9362793 38.60839844 C-37.26250244 37.53235352 -36.58872559 36.45630859 -35.89453125 35.34765625 C-35.00278198 33.89178101 -35.00278198 33.89178101 -34.09301758 32.40649414 C-30.79935941 28.61953641 -26.94001682 27.94546398 -22.1875 26.83984375 C-15.4537336 25.06562834 -9.65453585 20.59050793 -5.28515625 15.2109375 C-2.56458194 10.53055738 -1.33245989 5.21226956 0 0 Z " fill="#FCFCFC" transform="translate(429,292)"/>
<path d="M0 0 C8.79487493 9.1353217 11.48117872 19.59928154 12 31.9375 C11.75159081 43.21819984 7.751588 52.45882005 0.625 61.0625 C0.12484375 61.69800781 -0.3753125 62.33351563 -0.890625 62.98828125 C-8.0047028 71.09042541 -20.26872552 76.37960012 -30.87890625 77.2734375 C-44.00215725 77.75879244 -55.21210943 73.52288826 -65.47265625 65.40234375 C-70.14375207 61.05976456 -73.53567725 55.75154596 -76.375 50.0625 C-76.375 49.4025 -76.375 48.7425 -76.375 48.0625 C-74.69374988 46.86707522 -72.95251917 45.75537157 -71.1875 44.6875 C-67.35595453 42.3588231 -63.82701868 39.9276124 -60.375 37.0625 C-60.0346875 37.78695312 -59.694375 38.51140625 -59.34375 39.2578125 C-56.00732316 45.91291923 -52.8477181 50.30203422 -46.375 54.0625 C-45.78203125 54.43375 -45.1890625 54.805 -44.578125 55.1875 C-38.64174809 57.54520998 -30.42864541 56.95430779 -24.37890625 55.1875 C-17.19245461 51.8622621 -12.34064016 47.17231784 -9.5 39.75 C-7.52340163 32.72474074 -7.35472225 26.60940308 -10.375 19.875 C-14.3128399 12.85968858 -19.14603118 8.48632569 -26.875 6.125 C-28.36969545 5.74907509 -29.86823923 5.38670058 -31.375 5.0625 C-26.19155619 -0.72567893 -18.48715098 -3.67308142 -10.875 -4.875 C-5.99899964 -4.96207143 -3.45414839 -3.31630679 0 0 Z " fill="#FAFAFA" transform="translate(470.375,342.9375)"/>
<path d="M0 0 C0.41620298 7.24501491 -0.42432227 13.21364912 -3 20 C-3.38285156 21.01707031 -3.38285156 21.01707031 -3.7734375 22.0546875 C-8.79090679 33.51661276 -18.90186019 41.56509763 -30.1875 46.3125 C-42.11072752 50.71970526 -53.29841815 49.68645442 -65 45 C-78.91733512 38.35584849 -86.13027755 27.91362899 -91.1953125 13.62890625 C-92 10 -92 10 -92 1 C-85.4 1 -78.8 1 -72 1 C-71.95875 3.10375 -71.9175 5.2075 -71.875 7.375 C-71.33909244 14.54457408 -69.80081889 19.58292692 -65 25 C-57.08119181 31.59675844 -50.19121561 32.86306118 -40 32 C-36.70470853 31.07289905 -33.92740968 29.75890582 -31 28 C-29.63875 27.195625 -29.63875 27.195625 -28.25 26.375 C-21.4727693 19.22125648 -19.99847258 10.50784338 -19 1 C-16.58343806 0.83168225 -14.16676951 0.66528738 -11.75 0.5 C-11.06808594 0.45230469 -10.38617188 0.40460938 -9.68359375 0.35546875 C-6.44268497 0.13521281 -3.2506634 0 0 0 Z " fill="#FAFAFA" transform="translate(153,371)"/>
<path d="M0 0 C4.98669007 2.49334503 8.49675474 5.99350949 11 11 C11.59057744 16.67862925 11.29370905 21.16922672 8 26 C4.25777431 29.68235008 1.13048332 32.13859005 -4.1875 32.3125 C-9.03338199 32.22693868 -12.34199582 31.22231138 -16 28 C-19.40709908 24.17887369 -21.30175513 20.52905699 -21.5625 15.375 C-21.29059808 10.98680516 -19.89367224 8.36291639 -17 5 C-11.37343316 0.04326255 -7.41017624 -0.82081952 0 0 Z " fill="#F9F9F9" transform="translate(441,358)"/>
<path d="M0 0 C-0.16113281 0.83660156 -0.32226562 1.67320313 -0.48828125 2.53515625 C-1.03141814 6.21273201 -1.1684793 9.72085453 -1.1875 13.4375 C-1.20876953 15.32275391 -1.20876953 15.32275391 -1.23046875 17.24609375 C-0.99374553 21.10187359 -0.13213147 24.32057273 1 28 C0.9375 30.75 0.9375 30.75 0 33 C-0.845625 33.433125 -1.69125 33.86625 -2.5625 34.3125 C-3.366875 34.869375 -4.17125 35.42625 -5 36 C-5.52485897 40.49879115 -5.19097801 43.33719395 -3.9375 47.6875 C-2.94626991 51.18984632 -2.85778006 52.60551539 -4 56 C-5.9609375 57.6171875 -5.9609375 57.6171875 -8.375 58.875 C-9.16648437 59.30554688 -9.95796875 59.73609375 -10.7734375 60.1796875 C-13 61 -13 61 -16 60 C-16.984375 57.234375 -16.984375 57.234375 -17.75 53.75 C-18.01296875 52.61046875 -18.2759375 51.4709375 -18.546875 50.296875 C-18.98703619 47.0943229 -19.04840862 45.04254667 -18 42 C-16.00669158 40.65668346 -14.00615134 39.32405988 -12 38 C-9.34898387 33.93510861 -8.31033826 30.82763217 -9 26 C-10.59321546 21.59969063 -11.48212977 19.74473921 -15.71484375 17.66796875 C-18.45644413 16.66941932 -21.18911157 15.78026386 -24 15 C-21.38909816 7.97515199 -16.83408766 4.41385579 -10.359375 0.9375 C-6.73324342 -0.50334699 -3.85813511 -0.35073956 0 0 Z " fill="#F5F5F5" transform="translate(356,95)"/>
<path d="M0 0 C10.23 0 20.46 0 31 0 C31 10.72413793 31 10.72413793 28 16 C23.98019945 19.91401632 20.25478337 21.65311025 14.75 22.5 C9.45405579 21.79387411 5.99317049 19.47509448 2 16 C-1.35011814 11.33013835 -1.37005769 7.55086538 -1 2 C-0.67 1.34 -0.34 0.68 0 0 Z " fill="#F9F9F9" transform="translate(92,372)"/>
<path d="M0 0 C1.15680267 0.00848969 1.15680267 0.00848969 2.3369751 0.01715088 C4.79299779 0.03948911 7.24754555 0.08967737 9.703125 0.140625 C11.37107263 0.16069346 13.03904321 0.17894363 14.70703125 0.1953125 C18.78962823 0.23934508 22.87112681 0.30835217 26.953125 0.390625 C23.88735856 5.15887025 21.11217623 8.81109939 15.953125 11.390625 C13.84783567 11.47606395 11.73981343 11.49777225 9.6328125 11.48828125 C8.37597656 11.48505859 7.11914062 11.48183594 5.82421875 11.47851562 C4.50550781 11.47013672 3.18679688 11.46175781 1.828125 11.453125 C0.48828289 11.44810989 -0.851561 11.44354701 -2.19140625 11.43945312 C-5.47660706 11.42763586 -8.76171897 11.41116117 -12.046875 11.390625 C-12.5309375 5.0978125 -12.5309375 5.0978125 -10.53417969 2.18066406 C-7.10416614 -0.28781447 -4.06246123 -0.1125868 0 0 Z " fill="#F0F0F0" transform="translate(316.046875,333.609375)"/>
<path d="M0 0 C-0.66 0.66 -1.32 1.32 -2 2 C-2.46019531 2.46535156 -2.92039062 2.93070313 -3.39453125 3.41015625 C-4.49654414 4.50144395 -5.62045225 5.57092613 -6.76171875 6.62109375 C-13.19434941 12.68838231 -18.02418716 19.7402075 -23 27 C-27.875 26.125 -27.875 26.125 -29 25 C-29.5 22.875 -29.5 22.875 -29 20 C-27.4646561 18.12751827 -25.77702213 16.53899327 -24 14.89453125 C-21.98873282 12.98932698 -20.22304961 10.99135456 -18.4375 8.875 C-12.64639582 2.27493891 -9.15507181 -0.91550718 0 0 Z " fill="#F2F2F2" transform="translate(55,238)"/>
<path d="M0 0 C3.21432222 2.14288148 3.75540462 3.164801 4.64453125 6.8125 C5.97504998 15.0003076 5.29378913 20.88841175 1 28 C-2.24955331 23.12567004 -2.18225438 18.81694849 -2.1875 13.0625 C-2.19974609 12.35931641 -2.21199219 11.65613281 -2.22460938 10.93164062 C-2.23613272 6.83317265 -1.82416742 3.68438558 0 0 Z " fill="#F1F1F1" transform="translate(366,94)"/>
<path d="M0 0 C0.68449219 0.24621094 1.36898438 0.49242188 2.07421875 0.74609375 C1.9375 3 1.9375 3 1.07421875 5.74609375 C-1.5078125 7.8359375 -1.5078125 7.8359375 -4.73828125 9.68359375 C-5.79660156 10.31136719 -6.85492188 10.93914062 -7.9453125 11.5859375 C-10.92578125 12.74609375 -10.92578125 12.74609375 -13.25 12.125 C-14.92578125 10.74609375 -14.92578125 10.74609375 -15.92578125 7.74609375 C-13.87381843 6.37311131 -11.81174096 5.02340213 -9.73828125 3.68359375 C-9.16013672 3.29365234 -8.58199219 2.90371094 -7.98632812 2.50195312 C-5.11210187 0.66699512 -3.4514978 -0.29952918 0 0 Z " fill="#F0F0F0" transform="translate(334.92578125,121.25390625)"/>
<path d="M0 0 C1.8125 1.3125 1.8125 1.3125 2.8125 4.3125 C0.73812542 5.68242656 -1.34511462 7.03309546 -3.4375 8.375 C-4.02402344 8.76494141 -4.61054688 9.15488281 -5.21484375 9.55664062 C-9.64544859 12.36932797 -9.64544859 12.36932797 -12.609375 12.05859375 C-13.13015625 11.81238281 -13.6509375 11.56617188 -14.1875 11.3125 C-14.5175 9.9925 -14.8475 8.6725 -15.1875 7.3125 C-13.77281689 6.35124097 -12.3556636 5.39361675 -10.9375 4.4375 C-10.14859375 3.90382812 -9.3596875 3.37015625 -8.546875 2.8203125 C-2.771007 -0.87088791 -2.771007 -0.87088791 0 0 Z " fill="#F0F0F0" transform="translate(310.1875,135.6875)"/>
</svg>
